<svg width="85" height="91" viewBox="0 0 85 91" fill="none" xmlns="http://www.w3.org/2000/svg">
<path d="M28.9497 29.2789C23.3412 34.2025 14.8025 33.6464 9.87819 28.037C4.95388 22.4275 5.50859 13.8888 11.1172 8.96524C16.7258 4.04169 25.2644 4.59774 30.1887 10.2072C35.113 15.8167 34.5583 24.3554 28.9497 29.2789Z" fill="currentColor"/>
<path d="M28.9497 29.2789C23.3412 34.2025 14.8025 33.6464 9.87819 28.037C4.95388 22.4275 5.50859 13.8888 11.1172 8.96524C16.7258 4.04169 25.2644 4.59774 30.1887 10.2072C35.113 15.8167 34.5583 24.3554 28.9497 29.2789Z" fill="currentColor"/>
<path d="M51.7095 55.2067C46.1009 60.1302 37.5623 59.5742 32.638 53.9647C27.7136 48.3553 28.2684 39.8165 33.8769 34.893C39.4855 29.9694 48.0242 30.5255 52.9485 36.1349C57.8728 41.7444 57.3181 50.2831 51.7095 55.2067Z" fill="currentColor"/>
<path d="M51.7095 55.2067C46.1009 60.1302 37.5623 59.5742 32.638 53.9647C27.7136 48.3553 28.2684 39.8165 33.8769 34.893C39.4855 29.9694 48.0242 30.5255 52.9485 36.1349C57.8728 41.7444 57.3181 50.2831 51.7095 55.2067Z" fill="currentColor"/>
<path d="M74.4712 81.1334C68.8626 86.057 60.324 85.5009 55.3997 79.8915C50.4754 74.282 51.0301 65.7433 56.6387 60.8197C62.2473 55.8962 70.7859 56.4522 75.7102 62.0617C80.6345 67.6712 80.0798 76.2099 74.4712 81.1334Z" fill="currentColor"/>
<path d="M74.4712 81.1334C68.8626 86.057 60.324 85.5009 55.3997 79.8915C50.4754 74.282 51.0301 65.7433 56.6387 60.8197C62.2473 55.8962 70.7859 56.4522 75.7102 62.0617C80.6345 67.6712 80.0798 76.2099 74.4712 81.1334Z" fill="currentColor"/>
</svg>
