<svg width="77" height="79" viewBox="0 0 77 79" fill="none" xmlns="http://www.w3.org/2000/svg">
<path d="M1.03977 48.8421H5.06793C6.50347 48.8421 7.66747 50.0122 7.66747 51.4553L7.66747 65.9336C7.66747 73.1499 13.4869 79 20.6654 79H29.7418C30.3162 79 30.7815 78.532 30.7815 77.9548V63.2938C30.7815 62.7163 30.3159 62.2483 29.7418 62.2483H23.0815C21.6459 62.2483 20.4819 61.0784 20.4819 59.635L20.4819 19.991C20.4819 18.5479 21.6459 17.3778 23.0815 17.3778H29.7418C30.3162 17.3778 30.7815 16.9097 30.7815 16.3325V1.67153C30.7815 1.09435 30.3159 0.626297 29.7418 0.626297H20.6654C13.4869 0.626297 7.66747 6.47613 7.66747 13.6927L7.66747 28.8241C7.66747 30.2672 6.50347 31.4373 5.06793 31.4373H1.03977C0.465597 31.4373 0 31.9053 0 32.4825L0 47.7968C0 48.374 0.465597 48.8421 1.03977 48.8421Z" fill="#CCF6CF"/>
<path d="M1.03977 48.8421H5.06793C6.50347 48.8421 7.66747 50.0122 7.66747 51.4553L7.66747 65.9336C7.66747 73.1499 13.4869 79 20.6654 79H29.7418C30.3162 79 30.7815 78.532 30.7815 77.9548V63.2938C30.7815 62.7163 30.3159 62.2483 29.7418 62.2483H23.0815C21.6459 62.2483 20.4819 61.0784 20.4819 59.635L20.4819 19.991C20.4819 18.5479 21.6459 17.3778 23.0815 17.3778H29.7418C30.3162 17.3778 30.7815 16.9097 30.7815 16.3325V1.67153C30.7815 1.09435 30.3159 0.626297 29.7418 0.626297H20.6654C13.4869 0.626297 7.66747 6.47613 7.66747 13.6927L7.66747 28.8241C7.66747 30.2672 6.50347 31.4373 5.06793 31.4373H1.03977C0.465597 31.4373 0 31.9053 0 32.4825L0 47.7968C0 48.374 0.465597 48.8421 1.03977 48.8421Z" fill="#CCF6CF"/>
<path d="M75.9605 30.7841H71.9323C70.4968 30.7841 69.3328 29.614 69.3328 28.1709V13.6926C69.3328 6.47624 63.5134 0.626144 56.3348 0.626144H47.2585C46.6841 0.626144 46.2187 1.09419 46.2187 1.67138V16.3324C46.2187 16.9098 46.6843 17.3779 47.2585 17.3779H53.9188C55.3544 17.3779 56.5184 18.5477 56.5184 19.9911L56.5184 59.6352C56.5184 61.0783 55.3544 62.2484 53.9188 62.2484H47.2585C46.6841 62.2484 46.2188 62.7164 46.2188 63.2936V77.9546C46.2188 78.5318 46.6843 78.9998 47.2585 78.9998H56.3348C63.5134 78.9998 69.3328 73.15 69.3328 65.9334V50.8021C69.3328 49.359 70.4968 48.1889 71.9323 48.1889L75.9605 48.1889C76.5349 48.1889 77.0003 47.7208 77.0003 47.1436V31.8293C77.0003 31.2521 76.5349 30.7841 75.9605 30.7841Z" fill="#CCF6CF"/>
<path d="M75.9605 30.7841H71.9323C70.4968 30.7841 69.3328 29.614 69.3328 28.1709V13.6926C69.3328 6.47624 63.5134 0.626144 56.3348 0.626144H47.2585C46.6841 0.626144 46.2187 1.09419 46.2187 1.67138V16.3324C46.2187 16.9098 46.6843 17.3779 47.2585 17.3779H53.9188C55.3544 17.3779 56.5184 18.5477 56.5184 19.9911L56.5184 59.6352C56.5184 61.0783 55.3544 62.2484 53.9188 62.2484H47.2585C46.6841 62.2484 46.2188 62.7164 46.2188 63.2936V77.9546C46.2188 78.5318 46.6843 78.9998 47.2585 78.9998H56.3348C63.5134 78.9998 69.3328 73.15 69.3328 65.9334V50.8021C69.3328 49.359 70.4968 48.1889 71.9323 48.1889L75.9605 48.1889C76.5349 48.1889 77.0003 47.7208 77.0003 47.1436V31.8293C77.0003 31.2521 76.5349 30.7841 75.9605 30.7841Z" fill="#CCF6CF"/>
</svg>
