<svg width="64" height="64" viewBox="0 0 64 64" fill="none" xmlns="http://www.w3.org/2000/svg">
<path d="M61.6991 13.0343L51.0036 2.34044C50.5494 1.88638 49.8132 1.88638 49.3591 2.34044L32.0351 19.6617L14.7112 2.34044C14.2571 1.88638 13.5206 1.88638 13.0665 2.34044L2.37087 13.0343C1.91674 13.4884 1.91674 14.2245 2.37087 14.6786L19.6948 32.0001L2.37087 49.321C1.91674 49.7751 1.91674 50.5115 2.37087 50.9655L13.0665 61.6595C13.5206 62.1135 14.2571 62.1135 14.7112 61.6595L32.0351 44.3382L49.3591 61.6595C49.8132 62.1135 50.5494 62.1135 51.0036 61.6595L61.6991 50.9655C62.1533 50.5115 62.1533 49.7751 61.6991 49.321L44.3752 32.0001L61.6991 14.6786C62.1533 14.2245 62.1533 13.4884 61.6991 13.0343Z" fill="#FF7DAF" fill-opacity="0.7"/>
<path d="M61.6991 13.0343L51.0036 2.34044C50.5494 1.88638 49.8132 1.88638 49.3591 2.34044L32.0351 19.6617L14.7112 2.34044C14.2571 1.88638 13.5206 1.88638 13.0665 2.34044L2.37087 13.0343C1.91674 13.4884 1.91674 14.2245 2.37087 14.6786L19.6948 32.0001L2.37087 49.321C1.91674 49.7751 1.91674 50.5115 2.37087 50.9655L13.0665 61.6595C13.5206 62.1135 14.2571 62.1135 14.7112 61.6595L32.0351 44.3382L49.3591 61.6595C49.8132 62.1135 50.5494 62.1135 51.0036 61.6595L61.6991 50.9655C62.1533 50.5115 62.1533 49.7751 61.6991 49.321L44.3752 32.0001L61.6991 14.6786C62.1533 14.2245 62.1533 13.4884 61.6991 13.0343Z" stroke="#1E1E1E" stroke-opacity="0.7" stroke-width="2.9383" stroke-miterlimit="10"/>
</svg>
