<svg width="173" height="80" viewBox="0 0 173 80" fill="none" xmlns="http://www.w3.org/2000/svg">
<path d="M77.2824 40.0004C77.2824 60.7862 60.435 77.6362 39.6524 77.6362C18.8698 77.6362 2.0224 60.7862 2.0224 40.0004C2.0224 19.2146 18.8698 2.36453 39.6524 2.36453C60.435 2.36453 77.2824 19.2146 77.2824 40.0004Z" fill="#4285F4" fill-opacity="0.7"/>
<path d="M77.2824 40.0004C77.2824 60.7862 60.435 77.6362 39.6524 77.6362C18.8698 77.6362 2.0224 60.7862 2.0224 40.0004C2.0224 19.2146 18.8698 2.36453 39.6524 2.36453C60.435 2.36453 77.2824 19.2146 77.2824 40.0004Z" stroke="#1E1E1E" stroke-opacity="0.2" stroke-width="2.9383" stroke-miterlimit="10"/>
<path d="M171.03 39.9999C171.03 60.7857 154.183 77.6357 133.4 77.6357C112.618 77.6357 95.7703 60.7857 95.7703 39.9999C95.7703 19.2141 112.618 2.36404 133.4 2.36404C154.183 2.36404 171.03 19.2141 171.03 39.9999Z" fill="#4285F4" fill-opacity="0.7"/>
<path d="M171.03 39.9999C171.03 60.7857 154.183 77.6357 133.4 77.6357C112.618 77.6357 95.7703 60.7857 95.7703 39.9999C95.7703 19.2141 112.618 2.36405 133.4 2.36405C154.183 2.36405 171.03 19.2141 171.03 39.9999Z" stroke="#1E1E1E" stroke-opacity="0.2" stroke-width="2.9383" stroke-miterlimit="10"/>
</svg>
