<svg width="67" height="64" viewBox="0 0 67 64" fill="none" xmlns="http://www.w3.org/2000/svg">
<path d="M3.44738 2.31474L63.9072 2.31474C64.6845 2.31474 65.3147 2.97828 65.3147 3.79663V24.5811C65.3147 25.3994 64.6845 26.063 63.9072 26.063L3.44738 26.063C2.67007 26.063 2.03986 25.3994 2.03986 24.5811L2.03986 3.79663C2.03986 2.97828 2.67007 2.31474 3.44738 2.31474Z" fill="#57CAFF" fill-opacity="0.7"/>
<path d="M3.44738 2.31474L63.9072 2.31474C64.6845 2.31474 65.3147 2.97828 65.3147 3.79663V24.5811C65.3147 25.3994 64.6845 26.063 63.9072 26.063L3.44738 26.063C2.67007 26.063 2.03986 25.3994 2.03986 24.5811L2.03986 3.79663C2.03986 2.97828 2.67007 2.31474 3.44738 2.31474Z" stroke="#1E1E1E" stroke-opacity="0.7" stroke-width="2.9383" stroke-miterlimit="10" stroke-linejoin="round"/>
<path d="M3.44732 37.9373L63.9071 37.9373C64.6844 37.9373 65.3147 38.6008 65.3147 39.4192V60.2037C65.3147 61.022 64.6844 61.6855 63.9071 61.6855L3.44732 61.6855C2.67001 61.6855 2.03979 61.022 2.03979 60.2037L2.03979 39.4192C2.03979 38.6008 2.67001 37.9373 3.44732 37.9373Z" fill="#57CAFF" fill-opacity="0.7"/>
<path d="M3.44732 37.9373L63.9071 37.9373C64.6844 37.9373 65.3147 38.6008 65.3147 39.4192V60.2037C65.3147 61.022 64.6844 61.6855 63.9071 61.6855L3.44732 61.6855C2.67001 61.6855 2.03979 61.022 2.03979 60.2037L2.03979 39.4192C2.03979 38.6008 2.67001 37.9373 3.44732 37.9373Z" stroke="#1E1E1E" stroke-opacity="0.7" stroke-width="2.9383" stroke-miterlimit="10" stroke-linejoin="round"/>
</svg>
