<svg width="43" height="43" viewBox="0 0 43 43" fill="currentColor" xmlns="http://www.w3.org/2000/svg">
<path d="M0.956517 -0.00193405L42.0435 -0.00193405C42.5717 -0.00193405 43 0.478415 43 1.07083V16.117C43 16.7094 42.5717 17.1898 42.0435 17.1898L0.956517 17.1898C0.428281 17.1898 0 16.7094 0 16.117L0 1.07083C0 0.478415 0.428281 -0.00193405 0.956517 -0.00193405Z" fill="currentColor" fill-opacity="0.7"/>
<path d="M0.956517 25.7856L42.0435 25.7856C42.5717 25.7856 43 26.266 43 26.8584V41.9046C43 42.497 42.5717 42.9773 42.0435 42.9773L0.956517 42.9773C0.428281 42.9773 0 42.497 0 41.9046L0 26.8584C0 26.266 0.428281 25.7856 0.956517 25.7856Z" fill="currentColor" fill-opacity="0.7"/>
</svg>
