<svg width="81" height="80" viewBox="0 0 81 80" fill="none" xmlns="http://www.w3.org/2000/svg">
<path d="M79.3706 29.6302H50.4488V1.34505C50.4488 0.601913 49.8464 7.62939e-06 49.1035 7.62939e-06H31.6123C30.8694 7.62939e-06 30.267 0.601913 30.267 1.34505L30.267 29.6302H1.34525C0.602334 29.6302 0 30.2324 0 30.9752L0 48.4634C0 49.2062 0.602334 49.8084 1.34525 49.8084H30.267L30.267 78.0935C30.267 78.8367 30.8694 79.4386 31.6123 79.4386H49.1035C49.8464 79.4386 50.4488 78.8367 50.4488 78.0935V49.8084L79.3706 49.8084C80.1135 49.8084 80.7158 49.2062 80.7158 48.4634V30.9752C80.7158 30.2324 80.1135 29.6302 79.3706 29.6302Z" fill="currentColor"/>
</svg>
