<svg width="184" height="223" viewBox="0 0 184 223" fill="none" xmlns="http://www.w3.org/2000/svg">
<path d="M5.7833e-05 49.0677L22.478 85.6664C47.8603 73.3712 80.7471 83.7977 96.4356 109.342C112.124 134.885 104.734 165.973 80.0295 179.372L102.508 215.971C147.125 192.353 160.591 136.596 132.492 90.8456C104.393 45.0949 45.2992 26.559 5.7833e-05 49.0677Z" fill="#CE1E2B"/>
<path d="M5.7833e-05 49.0677L22.478 85.6664C47.8603 73.3712 80.7471 83.7977 96.4356 109.342C112.124 134.885 104.734 165.973 80.0295 179.372L102.508 215.971C147.125 192.353 160.591 136.596 132.492 90.8456C104.393 45.0949 45.2992 26.559 5.7833e-05 49.0677Z" fill="#CE1E2B"/>
</svg>
