<svg width="201" height="378" viewBox="0 0 201 378" fill="none" xmlns="http://www.w3.org/2000/svg">
<path d="M181.87 288.253C177.889 264.605 162.019 246.716 141.94 239.768C140.22 239.173 139.733 236.859 141.086 235.547C156.545 220.573 164.461 197.82 160.051 174.935C155.64 152.051 140.014 134.791 120.361 128.008C118.641 127.415 118.232 125.082 119.585 123.769C135.373 108.453 143.279 85.0168 138.195 61.6255C131.136 29.1514 98.9139 7.64015 67.5914 14.4734C34.1144 21.7768 12.3324 56.2739 19.0379 91.0679C23.4482 113.952 39.0748 131.212 58.7268 137.994C60.4283 138.582 60.8759 140.904 59.5374 142.2C44.0784 157.175 36.1632 179.929 40.5734 202.813C44.9837 225.697 60.6103 242.957 80.2623 249.739C81.9645 250.327 82.412 252.649 81.0729 253.946C65.6139 268.92 57.6987 291.674 62.109 314.558C68.8143 349.351 101.446 371.153 134.736 362.878C165.884 355.134 187.398 321.085 181.87 288.253Z" fill="#F8D8D8" fill-opacity="0.7"/>
</svg>
