<svg width="222" height="82" viewBox="0 0 222 82" fill="none" xmlns="http://www.w3.org/2000/svg">
<path d="M181.935 2.25221C167.242 1.89446 154.334 9.60731 147.379 21.2432C146.784 22.2401 145.332 22.2657 144.737 21.2684C137.941 9.87801 125.442 2.24038 111.146 2.24038C96.8495 2.24038 84.3511 9.87762 77.555 21.2684C76.9601 22.2657 75.5086 22.2401 74.9125 21.2432C67.958 9.60731 55.0499 1.89446 40.3565 2.25221C19.9577 2.74894 2.60268 20.1818 2.31857 40.4476C2.01499 62.1074 19.6002 79.7598 41.3367 79.7598C55.633 79.7598 68.1314 72.1225 74.9274 60.7321C75.5159 59.7459 76.9666 59.7459 77.555 60.7321C84.3511 72.1225 96.8499 79.7598 111.146 79.7598C125.442 79.7598 137.941 72.1225 144.737 60.7321C145.325 59.7456 146.776 59.7456 147.364 60.7321C154.161 72.1225 166.659 79.7598 180.956 79.7598C202.692 79.7598 220.277 62.1074 219.974 40.4476C219.689 20.1814 202.334 2.74894 181.935 2.25221Z" fill="#F8D8D8" fill-opacity="0.7"/>
<path d="M180.955 79.4658C202.53 79.4658 219.981 61.9457 219.68 40.4521C219.398 20.3455 202.171 3.03882 181.928 2.5459C167.345 2.19093 154.533 9.84535 147.631 21.3936C146.948 22.5363 145.305 22.6119 144.554 21.5273L144.485 21.4189C137.74 10.1143 125.335 2.53418 111.146 2.53418C96.9565 2.53432 84.5527 10.1141 77.8079 21.4189C77.094 22.6156 75.3655 22.5728 74.6604 21.3936C67.7582 9.84537 54.947 2.19082 40.3635 2.5459C20.1209 3.03888 2.89442 20.3459 2.61255 40.4521C2.31153 61.9457 19.7626 79.4658 41.3372 79.4658C55.526 79.4657 67.9302 71.8864 74.675 60.582C75.3775 59.4048 77.1044 59.4048 77.8069 60.582H77.8079C84.5528 71.8863 96.957 79.4657 111.146 79.4658C125.335 79.4658 137.74 71.8866 144.485 60.582C145.187 59.4044 146.914 59.4044 147.616 60.582C154.361 71.8865 166.766 79.4657 180.955 79.4658Z" stroke="#1E1E1E" stroke-opacity="0.7" stroke-width="0.58766"/>
<path d="M181.935 2.25221C167.242 1.89446 154.334 9.60731 147.379 21.2432C146.784 22.2401 145.332 22.2657 144.737 21.2684C137.941 9.878 125.442 2.24038 111.146 2.24038C96.8495 2.24038 84.3511 9.87762 77.555 21.2684C76.9601 22.2657 75.5086 22.2401 74.9125 21.2432C67.958 9.60731 55.0499 1.89446 40.3565 2.25221C19.9577 2.74894 2.60268 20.1818 2.31857 40.4476C2.01499 62.1074 19.6002 79.7598 41.3367 79.7598C55.633 79.7598 68.1314 72.1225 74.9274 60.7321C75.5159 59.7459 76.9666 59.7459 77.555 60.7321C84.3511 72.1225 96.8499 79.7598 111.146 79.7598C125.442 79.7598 137.941 72.1225 144.737 60.7321C145.325 59.7456 146.776 59.7456 147.364 60.7321C154.16 72.1225 166.659 79.7598 180.956 79.7598C202.692 79.7598 220.277 62.1074 219.974 40.4476C219.689 20.1814 202.334 2.74894 181.935 2.25221Z" stroke="#1E1E1E" stroke-opacity="0.7" stroke-width="2.9383" stroke-miterlimit="10"/>
</svg>
