<svg width="1920" height="555" viewBox="0 0 1920 555" fill="none" xmlns="http://www.w3.org/2000/svg">
<rect y="0.915436" width="91.5238" height="91.5238" stroke="#00405E" stroke-opacity="0.01" stroke-width="1.83048"/>
<rect x="91.5239" y="0.915237" width="91.5238" height="91.5238" stroke="#00405E" stroke-opacity="0.01" stroke-width="1.83048"/>
<rect x="183.048" y="0.915436" width="91.5238" height="91.5238" stroke="#00405E" stroke-opacity="0.01" stroke-width="1.83048"/>
<rect x="274.572" y="0.915436" width="91.5238" height="91.5238" stroke="#00405E" stroke-opacity="0.01" stroke-width="1.83048"/>
<rect x="366.095" y="0.915436" width="91.5238" height="91.5238" stroke="#00405E" stroke-opacity="0.01" stroke-width="1.83048"/>
<rect x="457.619" y="0.915237" width="91.5238" height="91.5238" stroke="#00405E" stroke-opacity="0.01" stroke-width="1.83048"/>
<rect x="549.143" y="0.915237" width="91.5238" height="91.5238" stroke="#00405E" stroke-opacity="0.01" stroke-width="1.83048"/>
<rect x="640.667" y="0.915237" width="91.5238" height="91.5238" stroke="#00405E" stroke-opacity="0.01" stroke-width="1.83048"/>
<rect x="732.19" y="0.915237" width="91.5238" height="91.5238" stroke="#00405E" stroke-opacity="0.01" stroke-width="1.83048"/>
<rect x="823.714" y="0.915237" width="91.5238" height="91.5238" stroke="#00405E" stroke-opacity="0.01" stroke-width="1.83048"/>
<rect x="915.238" y="0.915436" width="91.5238" height="91.5238" stroke="#00405E" stroke-opacity="0.01" stroke-width="1.83048"/>
<rect x="1006.76" y="0.915237" width="91.5238" height="91.5238" stroke="#00405E" stroke-opacity="0.01" stroke-width="1.83048"/>
<rect x="1098.29" y="0.915237" width="91.5238" height="91.5238" stroke="#00405E" stroke-opacity="0.01" stroke-width="1.83048"/>
<rect x="1189.81" y="0.915237" width="91.5238" height="91.5238" stroke="#00405E" stroke-opacity="0.01" stroke-width="1.83048"/>
<rect x="1281.33" y="0.915436" width="91.5238" height="91.5238" stroke="#00405E" stroke-opacity="0.01" stroke-width="1.83048"/>
<rect x="1372.86" y="0.915237" width="91.5238" height="91.5238" stroke="#00405E" stroke-opacity="0.01" stroke-width="1.83048"/>
<rect x="1464.38" y="0.915436" width="91.5238" height="91.5238" stroke="#00405E" stroke-opacity="0.01" stroke-width="1.83048"/>
<rect x="1555.9" y="0.915436" width="91.5238" height="91.5238" stroke="#00405E" stroke-opacity="0.01" stroke-width="1.83048"/>
<rect x="1647.43" y="0.915436" width="91.5238" height="91.5238" stroke="#00405E" stroke-opacity="0.01" stroke-width="1.83048"/>
<rect x="1738.95" y="0.915237" width="91.5238" height="91.5238" stroke="#00405E" stroke-opacity="0.01" stroke-width="1.83048"/>
<rect x="1830.48" y="0.915436" width="91.5238" height="91.5238" stroke="#00405E" stroke-opacity="0.01" stroke-width="1.83048"/>
<rect y="58.5299" width="91.5238" height="91.5238" stroke="#00405E" stroke-opacity="0.01" stroke-width="1.83048"/>
<rect x="91.5239" y="58.5299" width="91.5238" height="91.5238" stroke="#00405E" stroke-opacity="0.01" stroke-width="1.83048"/>
<rect x="183.048" y="58.5299" width="91.5238" height="91.5238" fill="#FF8B6A" fill-opacity="0.05" stroke="#00405E" stroke-opacity="0.01" stroke-width="1.83048"/>
<rect x="274.572" y="58.5299" width="91.5238" height="91.5238" stroke="#00405E" stroke-opacity="0.01" stroke-width="1.83048"/>
<rect x="366.095" y="58.5299" width="91.5238" height="91.5238" stroke="#00405E" stroke-opacity="0.01" stroke-width="1.83048"/>
<rect x="457.619" y="58.5299" width="91.5238" height="91.5238" stroke="#00405E" stroke-opacity="0.01" stroke-width="1.83048"/>
<rect x="549.143" y="58.5299" width="91.5238" height="91.5238" stroke="#00405E" stroke-opacity="0.01" stroke-width="1.83048"/>
<rect x="640.667" y="58.5299" width="91.5238" height="91.5238" stroke="#00405E" stroke-opacity="0.01" stroke-width="1.83048"/>
<rect x="732.19" y="58.5299" width="91.5238" height="91.5238" stroke="#00405E" stroke-opacity="0.01" stroke-width="1.83048"/>
<rect x="823.714" y="58.5299" width="91.5238" height="91.5238" fill="#FF8B6A" fill-opacity="0.05" stroke="#00405E" stroke-opacity="0.01" stroke-width="1.83048"/>
<rect x="915.238" y="58.5299" width="91.5238" height="91.5238" stroke="#00405E" stroke-opacity="0.01" stroke-width="1.83048"/>
<rect x="1006.76" y="58.5299" width="91.5238" height="91.5238" stroke="#00405E" stroke-opacity="0.01" stroke-width="1.83048"/>
<rect x="1098.29" y="58.5299" width="91.5238" height="91.5238" stroke="#00405E" stroke-opacity="0.01" stroke-width="1.83048"/>
<rect x="1189.81" y="58.5299" width="91.5238" height="91.5238" stroke="#00405E" stroke-opacity="0.01" stroke-width="1.83048"/>
<rect x="1281.33" y="58.5299" width="91.5238" height="91.5238" stroke="#00405E" stroke-opacity="0.01" stroke-width="1.83048"/>
<rect x="1372.86" y="58.5299" width="91.5238" height="91.5238" stroke="#00405E" stroke-opacity="0.01" stroke-width="1.83048"/>
<rect x="1464.38" y="58.5299" width="91.5238" height="91.5238" stroke="#00405E" stroke-opacity="0.01" stroke-width="1.83048"/>
<rect x="1555.9" y="58.5299" width="91.5238" height="91.5238" stroke="#00405E" stroke-opacity="0.01" stroke-width="1.83048"/>
<rect x="1647.43" y="58.5299" width="91.5238" height="91.5238" stroke="#00405E" stroke-opacity="0.01" stroke-width="1.83048"/>
<rect x="1738.95" y="58.5299" width="91.5238" height="91.5238" stroke="#00405E" stroke-opacity="0.01" stroke-width="1.83048"/>
<rect x="1830.48" y="58.5299" width="91.5238" height="91.5238" stroke="#00405E" stroke-opacity="0.01" stroke-width="1.83048"/>
<rect y="116.149" width="91.5238" height="91.5238" stroke="#00405E" stroke-opacity="0.01" stroke-width="1.83048"/>
<rect x="91.5237" y="116.149" width="91.5238" height="91.5238" stroke="#00405E" stroke-opacity="0.01" stroke-width="1.83048"/>
<rect x="183.048" y="116.149" width="91.5238" height="91.5238" stroke="#00405E" stroke-opacity="0.01" stroke-width="1.83048"/>
<rect x="274.572" y="116.149" width="91.5238" height="91.5238" stroke="#00405E" stroke-opacity="0.01" stroke-width="1.83048"/>
<rect x="366.095" y="116.149" width="91.5238" height="91.5238" stroke="#00405E" stroke-opacity="0.01" stroke-width="1.83048"/>
<rect x="457.619" y="116.149" width="91.5238" height="91.5238" stroke="#00405E" stroke-opacity="0.01" stroke-width="1.83048"/>
<rect x="549.143" y="116.149" width="91.5238" height="91.5238" stroke="#00405E" stroke-opacity="0.01" stroke-width="1.83048"/>
<rect x="640.667" y="116.149" width="91.5238" height="91.5238" stroke="#00405E" stroke-opacity="0.01" stroke-width="1.83048"/>
<rect x="732.19" y="116.149" width="91.5238" height="91.5238" stroke="#00405E" stroke-opacity="0.01" stroke-width="1.83048"/>
<rect x="823.714" y="116.149" width="91.5238" height="91.5238" stroke="#00405E" stroke-opacity="0.01" stroke-width="1.83048"/>
<rect x="915.238" y="116.149" width="91.5238" height="91.5238" stroke="#00405E" stroke-opacity="0.01" stroke-width="1.83048"/>
<rect x="1006.76" y="116.149" width="91.5238" height="91.5238" stroke="#00405E" stroke-opacity="0.01" stroke-width="1.83048"/>
<rect x="1098.29" y="116.149" width="91.5238" height="91.5238" stroke="#00405E" stroke-opacity="0.01" stroke-width="1.83048"/>
<rect x="1189.81" y="116.149" width="91.5238" height="91.5238" stroke="#00405E" stroke-opacity="0.01" stroke-width="1.83048"/>
<rect x="1281.33" y="116.149" width="91.5238" height="91.5238" stroke="#00405E" stroke-opacity="0.01" stroke-width="1.83048"/>
<rect x="1372.86" y="116.149" width="91.5238" height="91.5238" stroke="#00405E" stroke-opacity="0.01" stroke-width="1.83048"/>
<rect x="1464.38" y="116.149" width="91.5238" height="91.5238" fill="#FF8B6A" fill-opacity="0.05" stroke="#00405E" stroke-opacity="0.01" stroke-width="1.83048"/>
<rect x="1555.9" y="116.149" width="91.5238" height="91.5238" stroke="#00405E" stroke-opacity="0.01" stroke-width="1.83048"/>
<rect x="1647.43" y="116.149" width="91.5238" height="91.5238" stroke="#00405E" stroke-opacity="0.01" stroke-width="1.83048"/>
<rect x="1738.95" y="116.149" width="91.5238" height="91.5238" stroke="#00405E" stroke-opacity="0.01" stroke-width="1.83048"/>
<rect x="1830.48" y="116.149" width="91.5238" height="91.5238" stroke="#00405E" stroke-opacity="0.01" stroke-width="1.83048"/>
<rect y="173.762" width="91.5238" height="91.5238" stroke="#00405E" stroke-opacity="0.01" stroke-width="1.83048"/>
<rect x="91.5239" y="173.762" width="91.5238" height="91.5238" stroke="#00405E" stroke-opacity="0.01" stroke-width="1.83048"/>
<rect x="183.048" y="173.762" width="91.5238" height="91.5238" stroke="#00405E" stroke-opacity="0.01" stroke-width="1.83048"/>
<rect x="274.572" y="173.762" width="91.5238" height="91.5238" stroke="#00405E" stroke-opacity="0.01" stroke-width="1.83048"/>
<rect x="366.095" y="173.762" width="91.5238" height="91.5238" stroke="#00405E" stroke-opacity="0.01" stroke-width="1.83048"/>
<rect x="457.619" y="173.762" width="91.5238" height="91.5238" stroke="#00405E" stroke-opacity="0.01" stroke-width="1.83048"/>
<rect x="549.143" y="173.762" width="91.5238" height="91.5238" stroke="#00405E" stroke-opacity="0.01" stroke-width="1.83048"/>
<rect x="640.667" y="173.762" width="91.5238" height="91.5238" stroke="#00405E" stroke-opacity="0.01" stroke-width="1.83048"/>
<rect x="732.19" y="173.762" width="91.5238" height="91.5238" stroke="#00405E" stroke-opacity="0.01" stroke-width="1.83048"/>
<rect x="823.714" y="173.762" width="91.5238" height="91.5238" stroke="#00405E" stroke-opacity="0.01" stroke-width="1.83048"/>
<rect x="915.238" y="173.762" width="91.5238" height="91.5238" stroke="#00405E" stroke-opacity="0.01" stroke-width="1.83048"/>
<rect x="1006.76" y="173.762" width="91.5238" height="91.5238" stroke="#00405E" stroke-opacity="0.01" stroke-width="1.83048"/>
<rect x="1098.29" y="173.762" width="91.5238" height="91.5238" stroke="#00405E" stroke-opacity="0.01" stroke-width="1.83048"/>
<rect x="1189.81" y="173.762" width="91.5238" height="91.5238" stroke="#00405E" stroke-opacity="0.01" stroke-width="1.83048"/>
<rect x="1281.33" y="173.762" width="91.5238" height="91.5238" stroke="#00405E" stroke-opacity="0.01" stroke-width="1.83048"/>
<rect x="1372.86" y="173.762" width="91.5238" height="91.5238" stroke="#00405E" stroke-opacity="0.01" stroke-width="1.83048"/>
<rect x="1464.38" y="173.762" width="91.5238" height="91.5238" stroke="#00405E" stroke-opacity="0.01" stroke-width="1.83048"/>
<rect x="1555.9" y="173.762" width="91.5238" height="91.5238" stroke="#00405E" stroke-opacity="0.01" stroke-width="1.83048"/>
<rect x="1647.43" y="173.762" width="91.5238" height="91.5238" stroke="#00405E" stroke-opacity="0.01" stroke-width="1.83048"/>
<rect x="1738.95" y="173.762" width="91.5238" height="91.5238" stroke="#00405E" stroke-opacity="0.01" stroke-width="1.83048"/>
<rect x="1830.48" y="173.762" width="91.5238" height="91.5238" stroke="#00405E" stroke-opacity="0.01" stroke-width="1.83048"/>
<rect y="231.381" width="91.5238" height="91.5238" stroke="#00405E" stroke-opacity="0.01" stroke-width="1.83048"/>
<rect x="91.5237" y="231.381" width="91.5238" height="91.5238" stroke="#00405E" stroke-opacity="0.01" stroke-width="1.83048"/>
<rect x="183.048" y="231.381" width="91.5238" height="91.5238" stroke="#00405E" stroke-opacity="0.01" stroke-width="1.83048"/>
<rect x="274.572" y="231.381" width="91.5238" height="91.5238" fill="#FF8B6A" fill-opacity="0.05" stroke="#00405E" stroke-opacity="0.01" stroke-width="1.83048"/>
<rect x="366.095" y="231.381" width="91.5238" height="91.5238" stroke="#00405E" stroke-opacity="0.01" stroke-width="1.83048"/>
<rect x="457.619" y="231.381" width="91.5238" height="91.5238" stroke="#00405E" stroke-opacity="0.01" stroke-width="1.83048"/>
<rect x="549.143" y="231.381" width="91.5238" height="91.5238" stroke="#00405E" stroke-opacity="0.01" stroke-width="1.83048"/>
<rect x="640.667" y="231.381" width="91.5238" height="91.5238" stroke="#00405E" stroke-opacity="0.01" stroke-width="1.83048"/>
<rect x="732.19" y="231.381" width="91.5238" height="91.5238" stroke="#00405E" stroke-opacity="0.01" stroke-width="1.83048"/>
<rect x="823.714" y="231.381" width="91.5238" height="91.5238" stroke="#00405E" stroke-opacity="0.01" stroke-width="1.83048"/>
<rect x="915.238" y="231.381" width="91.5238" height="91.5238" stroke="#00405E" stroke-opacity="0.01" stroke-width="1.83048"/>
<rect x="1006.76" y="231.381" width="91.5238" height="91.5238" stroke="#00405E" stroke-opacity="0.01" stroke-width="1.83048"/>
<rect x="1098.29" y="231.381" width="91.5238" height="91.5238" fill="#FF8B6A" fill-opacity="0.05" stroke="#00405E" stroke-opacity="0.01" stroke-width="1.83048"/>
<rect x="1189.81" y="231.381" width="91.5238" height="91.5238" stroke="#00405E" stroke-opacity="0.01" stroke-width="1.83048"/>
<rect x="1281.33" y="231.381" width="91.5238" height="91.5238" stroke="#00405E" stroke-opacity="0.01" stroke-width="1.83048"/>
<rect x="1372.86" y="231.381" width="91.5238" height="91.5238" stroke="#00405E" stroke-opacity="0.01" stroke-width="1.83048"/>
<rect x="1464.38" y="231.381" width="91.5238" height="91.5238" stroke="#00405E" stroke-opacity="0.01" stroke-width="1.83048"/>
<rect x="1555.9" y="231.381" width="91.5238" height="91.5238" stroke="#00405E" stroke-opacity="0.01" stroke-width="1.83048"/>
<rect x="1647.43" y="231.381" width="91.5238" height="91.5238" stroke="#00405E" stroke-opacity="0.01" stroke-width="1.83048"/>
<rect x="1738.95" y="231.381" width="91.5238" height="91.5238" stroke="#00405E" stroke-opacity="0.01" stroke-width="1.83048"/>
<rect x="1830.48" y="231.381" width="91.5238" height="91.5238" stroke="#00405E" stroke-opacity="0.01" stroke-width="1.83048"/>
<rect x="0.000244141" y="288.996" width="91.5238" height="91.5238" stroke="#00405E" stroke-opacity="0.01" stroke-width="1.83048"/>
<rect x="91.5239" y="288.996" width="91.5238" height="91.5238" stroke="#00405E" stroke-opacity="0.01" stroke-width="1.83048"/>
<rect x="183.048" y="288.996" width="91.5238" height="91.5238" stroke="#00405E" stroke-opacity="0.01" stroke-width="1.83048"/>
<rect x="274.572" y="288.996" width="91.5238" height="91.5238" stroke="#00405E" stroke-opacity="0.01" stroke-width="1.83048"/>
<rect x="366.095" y="288.996" width="91.5238" height="91.5238" stroke="#00405E" stroke-opacity="0.01" stroke-width="1.83048"/>
<rect x="457.619" y="288.996" width="91.5238" height="91.5238" stroke="#00405E" stroke-opacity="0.01" stroke-width="1.83048"/>
<rect x="549.143" y="288.996" width="91.5238" height="91.5238" stroke="#00405E" stroke-opacity="0.01" stroke-width="1.83048"/>
<rect x="640.667" y="288.996" width="91.5238" height="91.5238" stroke="#00405E" stroke-opacity="0.01" stroke-width="1.83048"/>
<rect x="732.191" y="288.996" width="91.5238" height="91.5238" stroke="#00405E" stroke-opacity="0.01" stroke-width="1.83048"/>
<rect x="823.714" y="288.996" width="91.5238" height="91.5238" stroke="#00405E" stroke-opacity="0.01" stroke-width="1.83048"/>
<rect x="915.238" y="288.996" width="91.5238" height="91.5238" stroke="#00405E" stroke-opacity="0.01" stroke-width="1.83048"/>
<rect x="1006.76" y="288.996" width="91.5238" height="91.5238" stroke="#00405E" stroke-opacity="0.01" stroke-width="1.83048"/>
<rect x="1098.29" y="288.996" width="91.5238" height="91.5238" stroke="#00405E" stroke-opacity="0.01" stroke-width="1.83048"/>
<rect x="1189.81" y="288.996" width="91.5238" height="91.5238" stroke="#00405E" stroke-opacity="0.01" stroke-width="1.83048"/>
<rect x="1281.33" y="288.996" width="91.5238" height="91.5238" stroke="#00405E" stroke-opacity="0.01" stroke-width="1.83048"/>
<rect x="1372.86" y="288.996" width="91.5238" height="91.5238" stroke="#00405E" stroke-opacity="0.01" stroke-width="1.83048"/>
<rect x="1464.38" y="288.996" width="91.5238" height="91.5238" stroke="#00405E" stroke-opacity="0.01" stroke-width="1.83048"/>
<rect x="1555.9" y="288.996" width="91.5238" height="91.5238" stroke="#00405E" stroke-opacity="0.01" stroke-width="1.83048"/>
<rect x="1647.43" y="288.996" width="91.5238" height="91.5238" fill="#FF8B6A" fill-opacity="0.05" stroke="#00405E" stroke-opacity="0.01" stroke-width="1.83048"/>
<rect x="1738.95" y="288.996" width="91.5238" height="91.5238" stroke="#00405E" stroke-opacity="0.01" stroke-width="1.83048"/>
<rect x="1830.48" y="288.996" width="91.5238" height="91.5238" stroke="#00405E" stroke-opacity="0.01" stroke-width="1.83048"/>
<rect x="0.000244141" y="346.615" width="91.5238" height="91.5238" stroke="#00405E" stroke-opacity="0.01" stroke-width="1.83048"/>
<rect x="91.5239" y="346.615" width="91.5238" height="91.5238" stroke="#00405E" stroke-opacity="0.01" stroke-width="1.83048"/>
<rect x="183.048" y="346.615" width="91.5238" height="91.5238" stroke="#00405E" stroke-opacity="0.01" stroke-width="1.83048"/>
<rect x="274.572" y="346.615" width="91.5238" height="91.5238" stroke="#00405E" stroke-opacity="0.01" stroke-width="1.83048"/>
<rect x="366.095" y="346.615" width="91.5238" height="91.5238" stroke="#00405E" stroke-opacity="0.01" stroke-width="1.83048"/>
<rect x="457.619" y="346.615" width="91.5238" height="91.5238" stroke="#00405E" stroke-opacity="0.01" stroke-width="1.83048"/>
<rect x="549.143" y="346.615" width="91.5238" height="91.5238" stroke="#00405E" stroke-opacity="0.01" stroke-width="1.83048"/>
<rect x="640.667" y="346.615" width="91.5238" height="91.5238" stroke="#00405E" stroke-opacity="0.01" stroke-width="1.83048"/>
<rect x="732.191" y="346.615" width="91.5238" height="91.5238" stroke="#00405E" stroke-opacity="0.01" stroke-width="1.83048"/>
<rect x="823.714" y="346.615" width="91.5238" height="91.5238" stroke="#00405E" stroke-opacity="0.01" stroke-width="1.83048"/>
<rect x="915.238" y="346.615" width="91.5238" height="91.5238" stroke="#00405E" stroke-opacity="0.01" stroke-width="1.83048"/>
<rect x="1006.76" y="346.615" width="91.5238" height="91.5238" stroke="#00405E" stroke-opacity="0.01" stroke-width="1.83048"/>
<rect x="1098.29" y="346.615" width="91.5238" height="91.5238" stroke="#00405E" stroke-opacity="0.01" stroke-width="1.83048"/>
<rect x="1189.81" y="346.615" width="91.5238" height="91.5238" stroke="#00405E" stroke-opacity="0.01" stroke-width="1.83048"/>
<rect x="1281.33" y="346.615" width="91.5238" height="91.5238" stroke="#00405E" stroke-opacity="0.01" stroke-width="1.83048"/>
<rect x="1372.86" y="346.615" width="91.5238" height="91.5238" stroke="#00405E" stroke-opacity="0.01" stroke-width="1.83048"/>
<rect x="1464.38" y="346.615" width="91.5238" height="91.5238" stroke="#00405E" stroke-opacity="0.01" stroke-width="1.83048"/>
<rect x="1555.9" y="346.615" width="91.5238" height="91.5238" stroke="#00405E" stroke-opacity="0.01" stroke-width="1.83048"/>
<rect x="1647.43" y="346.615" width="91.5238" height="91.5238" stroke="#00405E" stroke-opacity="0.01" stroke-width="1.83048"/>
<rect x="1738.95" y="346.615" width="91.5238" height="91.5238" stroke="#00405E" stroke-opacity="0.01" stroke-width="1.83048"/>
<rect x="1830.48" y="346.615" width="91.5238" height="91.5238" stroke="#00405E" stroke-opacity="0.01" stroke-width="1.83048"/>
<rect x="0.000244141" y="404.228" width="91.5238" height="91.5238" stroke="#00405E" stroke-opacity="0.01" stroke-width="1.83048"/>
<rect x="91.5239" y="404.228" width="91.5238" height="91.5238" stroke="#00405E" stroke-opacity="0.01" stroke-width="1.83048"/>
<rect x="183.048" y="404.228" width="91.5238" height="91.5238" stroke="#00405E" stroke-opacity="0.01" stroke-width="1.83048"/>
<rect x="274.572" y="404.228" width="91.5238" height="91.5238" stroke="#00405E" stroke-opacity="0.01" stroke-width="1.83048"/>
<rect x="366.095" y="404.228" width="91.5238" height="91.5238" stroke="#00405E" stroke-opacity="0.01" stroke-width="1.83048"/>
<rect x="457.619" y="404.228" width="91.5238" height="91.5238" stroke="#00405E" stroke-opacity="0.01" stroke-width="1.83048"/>
<rect x="549.143" y="404.228" width="91.5238" height="91.5238" stroke="#00405E" stroke-opacity="0.01" stroke-width="1.83048"/>
<rect x="640.667" y="404.228" width="91.5238" height="91.5238" stroke="#00405E" stroke-opacity="0.01" stroke-width="1.83048"/>
<rect x="732.191" y="404.228" width="91.5238" height="91.5238" fill="#FF8B6A" fill-opacity="0.05" stroke="#00405E" stroke-opacity="0.01" stroke-width="1.83048"/>
<rect x="823.714" y="404.228" width="91.5238" height="91.5238" stroke="#00405E" stroke-opacity="0.01" stroke-width="1.83048"/>
<rect x="915.238" y="404.228" width="91.5238" height="91.5238" stroke="#00405E" stroke-opacity="0.01" stroke-width="1.83048"/>
<rect x="1006.76" y="404.228" width="91.5238" height="91.5238" stroke="#00405E" stroke-opacity="0.01" stroke-width="1.83048"/>
<rect x="1098.29" y="404.228" width="91.5238" height="91.5238" stroke="#00405E" stroke-opacity="0.01" stroke-width="1.83048"/>
<rect x="1189.81" y="404.228" width="91.5238" height="91.5238" stroke="#00405E" stroke-opacity="0.01" stroke-width="1.83048"/>
<rect x="1281.33" y="404.228" width="91.5238" height="91.5238" stroke="#00405E" stroke-opacity="0.01" stroke-width="1.83048"/>
<rect x="1372.86" y="404.228" width="91.5238" height="91.5238" stroke="#00405E" stroke-opacity="0.01" stroke-width="1.83048"/>
<rect x="1464.38" y="404.228" width="91.5238" height="91.5238" stroke="#00405E" stroke-opacity="0.01" stroke-width="1.83048"/>
<rect x="1555.9" y="404.228" width="91.5238" height="91.5238" stroke="#00405E" stroke-opacity="0.01" stroke-width="1.83048"/>
<rect x="1647.43" y="404.228" width="91.5238" height="91.5238" stroke="#00405E" stroke-opacity="0.01" stroke-width="1.83048"/>
<rect x="1738.95" y="404.228" width="91.5238" height="91.5238" stroke="#00405E" stroke-opacity="0.01" stroke-width="1.83048"/>
<rect x="1830.48" y="404.228" width="91.5238" height="91.5238" stroke="#00405E" stroke-opacity="0.01" stroke-width="1.83048"/>
<rect x="0.000244141" y="461.847" width="91.5238" height="91.5238" stroke="#00405E" stroke-opacity="0.01" stroke-width="1.83048"/>
<rect x="91.5239" y="461.847" width="91.5238" height="91.5238" stroke="#00405E" stroke-opacity="0.01" stroke-width="1.83048"/>
<rect x="183.048" y="461.847" width="91.5238" height="91.5238" stroke="#00405E" stroke-opacity="0.01" stroke-width="1.83048"/>
<rect x="274.572" y="461.847" width="91.5238" height="91.5238" stroke="#00405E" stroke-opacity="0.01" stroke-width="1.83048"/>
<rect x="366.095" y="461.847" width="91.5238" height="91.5238" fill="#FF8B6A" fill-opacity="0.05" stroke="#00405E" stroke-opacity="0.01" stroke-width="1.83048"/>
<rect x="457.619" y="461.847" width="91.5238" height="91.5238" stroke="#00405E" stroke-opacity="0.01" stroke-width="1.83048"/>
<rect x="549.143" y="461.847" width="91.5238" height="91.5238" stroke="#00405E" stroke-opacity="0.01" stroke-width="1.83048"/>
<rect x="640.667" y="461.847" width="91.5238" height="91.5238" stroke="#00405E" stroke-opacity="0.01" stroke-width="1.83048"/>
<rect x="732.191" y="461.847" width="91.5238" height="91.5238" stroke="#00405E" stroke-opacity="0.01" stroke-width="1.83048"/>
<rect x="823.714" y="461.847" width="91.5238" height="91.5238" stroke="#00405E" stroke-opacity="0.01" stroke-width="1.83048"/>
<rect x="915.238" y="461.847" width="91.5238" height="91.5238" stroke="#00405E" stroke-opacity="0.01" stroke-width="1.83048"/>
<rect x="1006.76" y="461.847" width="91.5238" height="91.5238" stroke="#00405E" stroke-opacity="0.01" stroke-width="1.83048"/>
<rect x="1098.29" y="461.847" width="91.5238" height="91.5238" stroke="#00405E" stroke-opacity="0.01" stroke-width="1.83048"/>
<rect x="1189.81" y="461.847" width="91.5238" height="91.5238" stroke="#00405E" stroke-opacity="0.01" stroke-width="1.83048"/>
<rect x="1281.33" y="461.847" width="91.5238" height="91.5238" stroke="#00405E" stroke-opacity="0.01" stroke-width="1.83048"/>
<rect x="1372.86" y="461.847" width="91.5238" height="91.5238" stroke="#00405E" stroke-opacity="0.01" stroke-width="1.83048"/>
<rect x="1464.38" y="461.847" width="91.5238" height="91.5238" stroke="#00405E" stroke-opacity="0.01" stroke-width="1.83048"/>
<rect x="1555.9" y="461.847" width="91.5238" height="91.5238" stroke="#00405E" stroke-opacity="0.01" stroke-width="1.83048"/>
<rect x="1647.43" y="461.847" width="91.5238" height="91.5238" stroke="#00405E" stroke-opacity="0.01" stroke-width="1.83048"/>
<rect x="1738.95" y="461.847" width="91.5238" height="91.5238" stroke="#00405E" stroke-opacity="0.01" stroke-width="1.83048"/>
<rect x="1830.48" y="461.847" width="91.5238" height="91.5238" stroke="#00405E" stroke-opacity="0.01" stroke-width="1.83048"/>
</svg>
