<svg width="123" height="21" viewBox="0 0 123 21" fill="none" xmlns="http://www.w3.org/2000/svg">
<path d="M11.4024 15.2144L13.5856 17.8365L12.8176 18.5423C12.0789 19.2225 11.2122 19.7637 10.2395 20.1477C9.26306 20.5353 8.27203 20.7291 7.29196 20.7291C5.94986 20.7291 4.70284 20.3854 3.58747 19.7125C2.47941 19.0396 1.59809 18.1217 0.958121 16.9807C0.321812 15.8434 0 14.5562 0 13.1556C0 11.755 0.321812 10.4677 0.958121 9.33041C1.59809 8.18944 2.48307 7.27154 3.58747 6.59866C4.70284 5.92578 5.94986 5.58203 7.29196 5.58203C8.27203 5.58203 9.26306 5.77951 10.2395 6.16349C11.2122 6.54747 12.0789 7.0887 12.8176 7.77255L13.5856 8.47834L11.3914 11.1113L10.543 10.2629C10.0968 9.82044 9.58121 9.46571 9.01073 9.20973C8.44756 8.96471 7.86976 8.83672 7.29196 8.83672C6.55326 8.83672 5.90598 9.01957 5.30624 9.39257C4.69918 9.7729 4.22744 10.2776 3.8654 10.9358C3.51067 11.5904 3.32783 12.3364 3.32783 13.1556C3.32783 13.9747 3.51067 14.7208 3.8654 15.3753C4.22744 16.0336 4.69918 16.5383 5.30989 16.9186C5.90598 17.2916 6.55326 17.4744 7.29196 17.4744C7.87707 17.4744 8.44756 17.3464 8.9961 17.0905C9.57756 16.8308 10.1005 16.4761 10.554 16.0373L11.4024 15.2144Z" fill="#111618"/>
<path d="M41.9886 0.0898438V6.34323C41.8387 6.27009 41.6888 6.20061 41.5352 6.13479C40.6612 5.76909 39.7433 5.58259 38.8034 5.58259C37.465 5.58259 36.218 5.92634 35.1026 6.59922C33.9945 7.2721 33.1132 8.18999 32.4732 9.33096C32.0783 10.0331 31.804 10.7901 31.6504 11.5983C31.5554 12.0993 31.5078 12.6186 31.5078 13.1561C31.5078 13.6937 31.5554 14.2093 31.6504 14.7067C31.804 15.5149 32.0783 16.2755 32.4732 16.9813C33.1132 18.1223 33.9945 19.0402 35.1026 19.713C36.2143 20.3859 37.4613 20.7297 38.8034 20.7297C39.97 20.7297 41.0378 20.4956 41.9886 20.0312V20.4774H45.2945V0.0898438H41.9886ZM41.9886 10.2086V16.1329C41.6888 16.4876 41.3121 16.7802 40.8294 17.0252C40.2406 17.3251 39.5568 17.475 38.8034 17.475C38.0501 17.475 37.4174 17.2921 36.8214 16.9191C36.2107 16.5388 35.7389 16.0342 35.3805 15.3759C35.0258 14.7286 34.843 13.9826 34.843 13.1561C34.843 12.3297 35.0258 11.5836 35.3805 10.9364C35.7389 10.2818 36.2107 9.77345 36.8214 9.39313C37.4174 9.02012 38.0647 8.83727 38.8034 8.83727C39.5421 8.83727 40.1748 8.99452 40.7782 9.30536C41.2682 9.56501 41.6741 9.86853 41.9886 10.2086Z" fill="#111618"/>
<path d="M60.2582 13.0056C60.2582 11.6635 59.962 10.4238 59.3842 9.32309C58.81 8.21504 58.0128 7.30811 57.0218 6.63158C55.9905 5.93676 54.813 5.58203 53.5184 5.58203C52.2239 5.58203 50.9293 5.92578 49.8286 6.60598C48.7424 7.27886 47.8757 8.20041 47.2541 9.34138C46.636 10.4823 46.3252 11.7659 46.3252 13.1556C46.3252 14.5452 46.647 15.8434 47.2833 16.9807C47.9269 18.1254 48.8119 19.0433 49.9127 19.7125C51.028 20.3854 52.2751 20.7291 53.6172 20.7291C54.5606 20.7291 55.4712 20.5938 56.3233 20.3269C57.1937 20.0562 58.0238 19.6394 58.7917 19.0798L59.6914 18.4289L57.6947 15.7447L56.806 16.4468C56.422 16.754 55.943 17.0027 55.3761 17.1855C54.802 17.3794 54.2096 17.4744 53.6172 17.4744C52.9077 17.4744 52.2787 17.3026 51.6936 16.9515C51.0939 16.5858 50.6258 16.1104 50.2601 15.4924C50.0882 15.2035 49.9529 14.8926 49.8505 14.5562H60.2582V13.0056ZM51.7046 9.30115C52.2385 8.99031 52.8273 8.83672 53.4928 8.83672C54.0889 8.83672 54.6009 8.98665 55.0653 9.29384C55.5627 9.61565 55.9722 10.0581 56.2867 10.6103C56.4147 10.8261 56.5244 11.0601 56.6122 11.3015H49.9968C50.0992 11.0492 50.2162 10.8151 50.3588 10.5957C50.7062 10.0508 51.1597 9.61565 51.7046 9.30115Z" fill="#111618"/>
<path d="M66.8704 9.04071V11.7542C66.8704 12.6867 66.8558 13.6192 66.8558 14.5554C66.8558 15.0198 66.8448 15.4843 66.8521 15.9487C66.8594 16.3875 66.8302 16.8776 67.1447 17.2286C67.4701 17.5907 68.037 17.4919 68.4612 17.4078C68.9731 17.3091 69.4668 17.1262 69.9422 16.9178C69.9678 16.9068 69.9934 16.8958 70.019 16.8849C70.0775 16.8593 70.136 16.8337 70.1946 16.8044C70.3664 16.7276 70.5346 16.6472 70.7065 16.5667C70.6663 16.585 70.7138 17.3786 70.7138 17.4517V20.0737L69.9971 20.337C69.6021 20.4833 69.1962 20.5857 68.7939 20.6442C68.4246 20.7027 68.0223 20.732 67.5945 20.732C66.3694 20.732 65.3857 20.3955 64.6726 19.73C63.9375 19.0425 63.5645 18.11 63.5645 16.9544V9.04071H60.8291V5.83357H63.5645V2.07422H66.874V5.83357H70.7138V9.04071H66.874H66.8704Z" fill="#111618"/>
<path d="M104.251 9.04071V11.7542C104.251 12.6867 104.237 13.6192 104.237 14.5554C104.237 15.0198 104.226 15.4843 104.233 15.9487C104.24 16.3875 104.211 16.8776 104.526 17.2286C104.851 17.5907 105.418 17.4919 105.842 17.4078C106.354 17.3091 106.848 17.1262 107.323 16.9178C107.349 16.9068 107.374 16.8958 107.4 16.8849C107.458 16.8593 107.517 16.8337 107.575 16.8044C107.747 16.7276 107.916 16.6472 108.087 16.5667C108.047 16.585 108.095 17.3786 108.095 17.4517V20.0737L107.378 20.337C106.983 20.4833 106.577 20.5857 106.175 20.6442C105.805 20.7027 105.403 20.732 104.975 20.732C103.75 20.732 102.767 20.3955 102.053 19.73C101.318 19.0425 100.945 18.11 100.945 16.9544V9.04071H98.21V5.83357H100.945V2.07422H104.255V5.83357H108.095V9.04071H104.255H104.251Z" fill="#111618"/>
<path d="M76.7625 3.16043C76.7625 3.71628 76.565 4.21729 76.192 4.60492C75.808 5.00719 75.2924 5.21929 74.7073 5.21929C74.1222 5.21929 73.6358 5.01084 73.2445 4.61589C72.8532 4.23191 72.6484 3.72725 72.6484 3.16043C72.6484 2.5936 72.8532 2.09625 73.2482 1.7013C73.6395 1.31001 74.1441 1.10156 74.7073 1.10156C75.2705 1.10156 75.808 1.31367 76.1957 1.71959C76.5687 2.11088 76.7625 2.60823 76.7625 3.16043Z" fill="#111618"/>
<path d="M76.3567 5.83301H73.0508V20.4754H76.3567V5.83301Z" fill="#111618"/>
<path d="M92.5281 5.83398L86.1577 20.4764H83.7112L77.3115 5.83398H80.9246L84.9546 15.1848L88.9699 5.83398H92.5281Z" fill="#111618"/>
<path d="M97.1978 3.16043C97.1978 3.71263 97.0003 4.20997 96.6273 4.60127C96.2397 5.00719 95.7241 5.21929 95.1389 5.21929C94.5538 5.21929 94.0675 5.01084 93.6762 4.61955C93.2849 4.23191 93.0801 3.72725 93.0801 3.16043C93.0801 2.5936 93.2849 2.08894 93.6798 1.7013C94.0711 1.31001 94.5758 1.10156 95.1389 1.10156C95.7021 1.10156 96.2397 1.31367 96.6273 1.71959C97.0003 2.11454 97.1978 2.61188 97.1978 3.16043Z" fill="#111618"/>
<path d="M96.7883 5.83301H93.4824V20.4754H96.7883V5.83301Z" fill="#111618"/>
<path d="M123.001 13.0056C123.001 11.6635 122.708 10.4238 122.13 9.32309C121.556 8.21504 120.759 7.30811 119.764 6.63158C118.74 5.93676 117.563 5.58203 116.261 5.58203C114.959 5.58203 113.675 5.92578 112.575 6.60598C111.489 7.27886 110.622 8.20041 110 9.34138C109.382 10.475 109.071 11.7586 109.071 13.1556C109.071 14.5525 109.393 15.8434 110.029 16.9807C110.673 18.1254 111.558 19.0433 112.659 19.7125C113.774 20.3854 115.021 20.7291 116.367 20.7291C117.307 20.7291 118.217 20.5938 119.069 20.3269C119.94 20.0562 120.77 19.6394 121.538 19.0798L122.437 18.4289L120.441 15.7447L119.552 16.4468C119.172 16.7504 118.689 16.999 118.122 17.1855C117.548 17.3757 116.956 17.4744 116.367 17.4744C115.654 17.4744 115.025 17.3026 114.44 16.9515C113.84 16.5858 113.372 16.1104 113.006 15.4924C112.834 15.2071 112.699 14.8926 112.597 14.5562H123.001V13.0056ZM112.743 11.3015C112.842 11.0492 112.962 10.8151 113.101 10.5957H113.105C113.452 10.0508 113.906 9.61565 114.451 9.30115C114.985 8.99031 115.57 8.83672 116.235 8.83672C116.835 8.83672 117.347 8.98665 117.811 9.29384C118.309 9.61565 118.718 10.0581 119.033 10.6103C119.161 10.8261 119.271 11.0601 119.358 11.3015H112.743Z" fill="#111618"/>
<path fill-rule="evenodd" clip-rule="evenodd" d="M24.7061 20.9102L20.8762 20.9119C20.5969 20.9119 20.3716 20.6848 20.3716 20.4056V17.5058L17.9293 19.8875C17.7291 20.0826 17.4095 20.0776 17.2161 19.8791L16.3112 18.9506L15.4332 18.0339C15.2414 17.8338 15.2465 17.5176 15.4433 17.3241L17.862 14.9491H15.0446C14.7654 14.9491 14.54 14.7238 14.54 14.4445V10.6398C14.54 10.2362 14.7015 9.85097 14.9858 9.56671L18.6139 5.96385C18.8981 5.68128 19.2833 5.52148 19.6853 5.52317L23.5152 5.52148C23.7944 5.52148 24.0198 5.74856 24.0198 6.02777V8.92755L26.4621 6.54583C26.6623 6.35071 26.9802 6.35576 27.1753 6.55424L28.0802 7.48271L28.9582 8.3994C29.15 8.59956 29.1449 8.91578 28.9481 9.10921L26.5294 11.4842H29.3468C29.626 11.4842 29.8514 11.7096 29.8514 11.9888V15.7935C29.8514 16.1972 29.6899 16.5824 29.4056 16.8666L25.7809 20.4695C25.4966 20.7521 25.1098 20.9102 24.7095 20.9102H24.7061ZM21.1386 9.06716C20.7366 9.06716 20.3514 9.22358 20.0671 9.50784L18.5247 11.0418C18.2388 11.3261 18.0773 11.713 18.079 12.1166L18.0823 14.9172L20.3985 17.3695L23.2528 17.3628C23.6548 17.3628 24.04 17.2064 24.3243 16.9221L25.8667 15.3881C26.1526 15.1039 26.3141 14.717 26.3124 14.3133L26.309 11.5128L23.9929 9.06043L21.1386 9.06716Z" fill="#111618"/>
</svg>
