<svg width="1141" height="722" viewBox="0 0 1141 722" fill="none" xmlns="http://www.w3.org/2000/svg">
<g clip-path="url(#clip0_2048_46)">
<path d="M66.4127 707.824L53.0617 659.184L39.5051 707.824C38.4782 711.519 37.5881 714.14 36.9718 715.752C36.3557 717.364 35.2602 718.775 33.7539 720.052C32.1792 721.328 30.1937 721.932 27.5919 721.932C25.538 721.932 23.8262 721.529 22.4569 720.79C21.0875 720.052 20.0606 718.976 19.2389 717.565C18.4174 716.154 17.7327 714.543 17.185 712.661C16.6372 710.78 16.158 709.034 15.7472 707.355L1.98534 652.735C1.16373 649.577 0.75293 647.16 0.75293 645.479C0.75293 643.397 1.50606 641.583 3.01234 640.173C4.51861 638.762 6.36721 638.022 8.62662 638.022C11.6392 638.022 13.6932 638.964 14.7886 640.912C15.8841 642.86 16.7742 645.614 17.5273 649.242L28.3451 696.606L40.4637 652.265C41.3537 648.839 42.1754 646.286 42.8601 644.539C43.5447 642.792 44.7087 641.247 46.3519 639.97C47.995 638.694 50.186 638.022 52.9247 638.022C55.6633 638.022 57.9228 638.694 59.4975 640.038C61.0722 641.381 62.1677 642.86 62.7154 644.473C63.3317 646.084 64.1532 648.705 65.1118 652.333L77.3673 696.672L88.1851 649.309C88.7328 646.824 89.2121 644.876 89.6914 643.531C90.1706 642.121 90.9922 640.844 92.0878 639.77C93.2516 638.694 94.8949 638.09 97.0858 638.09C99.2768 638.09 101.125 638.828 102.632 640.239C104.138 641.651 104.891 643.465 104.891 645.614C104.891 647.16 104.48 649.511 103.659 652.87L89.8967 707.489C88.9383 711.183 88.1851 713.87 87.569 715.617C86.9527 717.364 85.9256 718.842 84.4194 720.118C82.9131 721.395 80.8592 722.066 78.1205 722.066C75.5872 722.066 73.5332 721.463 71.9585 720.186C70.4522 718.91 69.3567 717.499 68.7406 715.954C68.1243 714.409 67.3028 711.721 66.2073 707.892L66.4127 707.824Z" fill="black"/>
<path d="M209.44 638.092C217.999 638.092 225.392 639.771 231.555 643.198C237.716 646.623 242.373 651.46 245.521 657.775C248.671 664.091 250.246 671.48 250.246 679.946C250.246 686.193 249.356 691.904 247.644 697.076C245.933 702.25 243.33 706.683 239.839 710.446C236.347 714.208 232.102 717.097 227.104 719.045C222.038 721.061 216.287 722.001 209.782 722.001C203.278 722.001 197.527 720.993 192.391 718.911C187.257 716.895 183.012 714.007 179.589 710.244C176.164 706.483 173.563 702.048 171.852 696.808C170.14 691.567 169.249 685.924 169.249 679.812C169.249 673.698 170.14 667.853 171.989 662.68C173.838 657.506 176.439 653.073 179.931 649.378C183.422 645.683 187.599 642.929 192.596 640.98C197.595 639.032 203.209 638.092 209.508 638.092H209.44ZM233.266 679.812C233.266 673.899 232.307 668.726 230.321 664.36C228.337 659.993 225.599 656.701 221.969 654.484C218.341 652.266 214.164 651.125 209.508 651.125C206.154 651.125 203.072 651.729 200.196 653.005C197.39 654.215 194.924 656.029 192.871 658.38C190.817 660.732 189.173 663.755 188.009 667.45C186.845 671.145 186.23 675.243 186.23 679.812C186.23 684.379 186.845 688.612 188.009 692.307C189.173 696.07 190.885 699.092 193.008 701.579C195.199 704.064 197.663 705.877 200.471 707.088C203.278 708.296 206.359 708.901 209.714 708.901C214.027 708.901 217.929 707.825 221.559 705.743C225.119 703.661 227.995 700.369 230.116 696.002C232.239 691.635 233.334 686.193 233.334 679.812H233.266Z" fill="black"/>
<path d="M342.54 685.923H336.651V711.99C336.651 715.417 335.897 717.968 334.323 719.581C332.816 721.194 330.763 722 328.297 722C325.628 722 323.573 721.126 322.068 719.447C320.562 717.768 319.877 715.283 319.877 711.99V649.578C319.877 646.018 320.697 643.465 322.273 641.852C323.847 640.241 326.518 639.501 330.146 639.501H357.396C361.162 639.501 364.38 639.636 367.049 639.971C369.72 640.307 372.116 640.912 374.239 641.852C376.84 642.927 379.101 644.473 381.085 646.421C383.071 648.437 384.577 650.72 385.604 653.341C386.631 655.96 387.179 658.782 387.179 661.738C387.179 667.785 385.467 672.621 381.976 676.25C378.484 679.877 373.212 682.43 366.16 683.975C369.105 685.52 371.98 687.805 374.649 690.828C377.389 693.851 379.785 697.075 381.907 700.502C384.03 703.928 385.674 707.019 386.836 709.772C388 712.527 388.617 714.409 388.617 715.417C388.617 716.423 388.275 717.566 387.59 718.573C386.906 719.649 385.947 720.455 384.715 721.06C383.483 721.664 382.113 722 380.538 722C378.689 722 377.047 721.597 375.813 720.724C374.514 719.85 373.417 718.776 372.528 717.431C371.638 716.088 370.337 714.14 368.762 711.587L362.052 700.636C359.656 696.606 357.465 693.582 355.616 691.432C353.7 689.35 351.782 687.871 349.865 687.133C347.879 686.326 345.415 685.991 342.47 685.991L342.54 685.923ZM352.124 651.796H336.651V674.1H351.644C355.684 674.1 359.039 673.763 361.778 673.092C364.516 672.42 366.639 671.278 368.078 669.599C369.515 667.986 370.269 665.701 370.269 662.813C370.269 660.595 369.72 658.581 368.488 656.834C367.324 655.087 365.68 653.81 363.626 653.004C361.64 652.199 357.807 651.796 352.056 651.796H352.124Z" fill="black"/>
<path d="M475.433 648.032V676.45L508.297 642.792C509.872 641.181 511.241 639.97 512.336 639.165C513.432 638.359 514.939 638.022 516.788 638.022C519.184 638.022 521.168 638.694 522.607 640.105C524.044 641.516 524.866 643.196 524.866 645.144C524.866 647.563 523.634 649.914 521.1 652.265L500.766 671.21L524.25 704.197C525.892 706.481 527.126 708.495 527.946 710.176C528.768 711.856 529.18 713.535 529.18 715.214C529.18 717.028 528.426 718.573 526.989 719.918C525.55 721.26 523.566 721.932 521.1 721.932C518.772 721.932 516.855 721.463 515.417 720.455C513.98 719.447 512.679 718.17 511.721 716.557C510.693 714.946 509.803 713.467 508.981 712.124L489.194 682.228L475.501 695.127V711.922C475.501 715.349 474.68 717.834 473.105 719.447C471.53 721.06 469.477 721.932 467.011 721.932C465.574 721.932 464.205 721.597 462.904 720.858C461.602 720.118 460.575 719.11 459.891 717.834C459.343 716.827 459.069 715.617 458.932 714.206C458.796 712.796 458.796 710.848 458.796 708.295V647.966C458.796 644.674 459.548 642.188 461.055 640.509C462.561 638.828 464.547 638.022 467.148 638.022C469.75 638.022 471.735 638.828 473.242 640.509C474.816 642.121 475.57 644.674 475.57 648.032H475.433Z" fill="black"/>
<path d="M611.751 648.909L630.443 703.326L649.202 648.506C650.161 645.618 650.915 643.603 651.393 642.527C651.873 641.452 652.694 640.378 653.791 639.504C654.885 638.631 656.46 638.16 658.446 638.16C659.884 638.16 661.184 638.497 662.417 639.236C663.649 639.907 664.607 640.847 665.293 642.057C665.978 643.266 666.32 644.408 666.32 645.551C666.32 646.356 666.183 647.23 665.978 648.171C665.771 649.111 665.498 650.051 665.156 650.925C664.813 651.799 664.471 652.739 664.129 653.747L644.135 706.753C643.451 708.769 642.698 710.717 642.014 712.53C641.329 714.344 640.439 715.957 639.548 717.368C638.591 718.779 637.357 719.853 635.783 720.794C634.209 721.667 632.291 722.137 630.032 722.137C627.773 722.137 625.855 721.735 624.281 720.861C622.706 719.987 621.473 718.845 620.515 717.434C619.556 716.024 618.734 714.412 617.982 712.598C617.297 710.785 616.543 708.903 615.859 706.821L596.141 654.217C595.799 653.276 595.457 652.336 595.114 651.396C594.772 650.454 594.43 649.448 594.223 648.44C594.018 647.432 593.881 646.491 593.881 645.753C593.881 643.871 594.635 642.124 596.209 640.579C597.783 639.034 599.701 638.228 602.03 638.228C604.905 638.228 606.89 639.102 608.123 640.781C609.286 642.527 610.519 645.214 611.751 648.977V648.909Z" fill="black"/>
<path d="M735.06 711.991V648.034C735.06 644.743 735.814 642.256 737.388 640.577C738.894 638.898 740.948 638.092 743.344 638.092C745.742 638.092 747.931 638.898 749.438 640.577C751.013 642.19 751.766 644.743 751.766 648.102V712.058C751.766 715.418 751.013 717.903 749.438 719.582C747.863 721.262 745.81 722.069 743.344 722.069C740.88 722.069 738.962 721.195 737.388 719.582C735.814 717.971 735.06 715.418 735.06 712.058V711.991Z" fill="black"/>
<path d="M842.416 648.034V707.088H876.376C879.115 707.088 881.168 707.759 882.605 709.035C884.044 710.312 884.796 711.923 884.796 713.873C884.796 715.821 884.112 717.5 882.675 718.709C881.236 719.919 879.182 720.59 876.444 720.59H835.98C832.351 720.59 829.682 719.785 828.106 718.24C826.532 716.627 825.71 714.074 825.71 710.513V648.034C825.71 644.743 826.464 642.256 827.969 640.577C829.475 638.898 831.461 638.092 833.994 638.092C836.528 638.092 838.582 638.898 840.088 640.577C841.662 642.19 842.416 644.743 842.416 648.102V648.034Z" fill="black"/>
<path d="M967.641 648.034V707.088H1001.6C1004.34 707.088 1006.39 707.759 1007.83 709.035C1009.27 710.312 1010.02 711.923 1010.02 713.873C1010.02 715.821 1009.34 717.5 1007.9 718.709C1006.46 719.919 1004.41 720.59 1001.67 720.59H961.206C957.577 720.59 954.907 719.785 953.333 718.24C951.757 716.627 950.937 714.074 950.937 710.513V648.034C950.937 644.743 951.689 642.256 953.195 640.577C954.702 638.898 956.688 638.092 959.221 638.092C961.754 638.092 963.808 638.898 965.315 640.577C966.889 642.19 967.641 644.743 967.641 648.102V648.034Z" fill="black"/>
<path d="M1130.93 652.131H1093.21V672.084H1127.92C1130.45 672.084 1132.37 672.621 1133.67 673.763C1134.97 674.905 1135.59 676.384 1135.59 678.198C1135.59 680.011 1134.97 681.557 1133.74 682.699C1132.51 683.841 1130.59 684.446 1127.99 684.446H1093.28V707.556H1132.3C1134.91 707.556 1136.89 708.161 1138.26 709.369C1139.56 710.579 1140.25 712.191 1140.25 714.14C1140.25 716.088 1139.56 717.633 1138.26 718.842C1136.89 720.052 1134.91 720.656 1132.3 720.656H1086.77C1083.14 720.656 1080.47 719.85 1078.9 718.305C1077.32 716.692 1076.5 714.14 1076.5 710.579V649.578C1076.5 647.227 1076.85 645.279 1077.6 643.8C1078.28 642.323 1079.45 641.247 1080.95 640.509C1082.46 639.77 1084.45 639.501 1086.77 639.501H1131C1133.67 639.501 1135.66 640.105 1136.96 641.247C1138.26 642.389 1138.88 643.935 1138.88 645.816C1138.88 647.698 1138.26 649.243 1136.96 650.451C1135.66 651.594 1133.67 652.199 1131 652.199L1130.93 652.131Z" fill="black"/>
<path d="M98.3868 612.024C66.4813 612.024 42.1071 604.365 25.2642 588.98C8.42142 573.596 0 550.889 0 520.792V393.818H42.244V520.455C42.244 539.803 47.0368 554.248 56.6221 563.923C66.2075 573.596 80.1061 578.433 98.3868 578.433C116.668 578.433 130.498 573.596 140.015 563.923C149.464 554.248 154.187 539.737 154.187 520.455V393.818H196.158V520.792C196.158 550.889 187.874 573.664 171.372 588.98C154.873 604.365 130.498 612.024 98.3868 612.024Z" fill="black"/>
<path d="M245.386 608.933V393.818H346.442C371.98 393.818 391.699 399.461 405.529 410.749C419.429 422.035 426.343 437.889 426.343 458.178C426.343 471.413 423.194 482.767 416.963 492.374C410.665 501.913 401.626 509.237 389.714 514.343C377.799 519.447 363.421 522 346.442 522L349.386 517.433H360.273C369.31 517.433 377.184 519.447 383.893 523.545C390.603 527.643 396.492 534.026 401.558 542.759L440.516 609.001H393.958L353.7 540.342C351.029 535.84 348.086 532.347 344.799 529.794C341.513 527.241 337.748 525.495 333.571 524.487C329.394 523.479 324.534 522.942 319.055 522.942H287.698V609.001H245.454L245.386 608.933ZM287.629 493.919H339.117C354.317 493.919 365.819 491.029 373.624 485.252C381.429 479.474 385.332 470.741 385.332 459.186C385.332 447.631 381.429 439.165 373.624 433.388C365.819 427.61 354.317 424.722 339.117 424.722H287.629V493.987V493.919Z" fill="black"/>
<path d="M471.942 608.933V393.818H573.683C598.127 393.818 617.023 398.723 630.511 408.599C643.931 418.474 650.64 432.179 650.64 449.646C650.64 462.679 646.533 473.631 638.453 482.633C630.306 491.568 619.214 497.614 605.11 500.636V496.069C615.928 497.48 625.171 500.57 632.839 505.205C640.576 509.908 646.465 515.888 650.503 523.21C654.543 530.533 656.597 539.066 656.597 548.873C656.597 561.504 653.448 572.319 647.217 581.389C640.919 590.459 631.88 597.311 619.968 602.014C608.055 606.717 593.882 609.001 577.381 609.001H472.01L471.942 608.933ZM512.543 485.051H566.358C580.873 485.051 591.759 482.43 598.879 477.258C606 472.086 609.629 464.427 609.629 454.215C609.629 444.003 606.069 436.344 598.879 431.171C591.691 425.999 580.873 423.378 566.358 423.378H512.543V485.051ZM512.543 579.373H571.972C577.928 579.373 583.269 578.97 587.994 578.165C592.718 577.359 596.826 576.082 600.181 574.335C603.604 572.588 606.479 570.439 608.74 567.752C611.066 565.131 612.778 562.041 613.874 558.614C614.969 555.188 615.518 551.292 615.518 546.992C615.518 542.693 614.969 538.527 613.874 535.102C612.778 531.675 611.066 528.651 608.74 526.098C606.411 523.545 603.536 521.397 600.181 519.716C596.758 517.97 592.718 516.694 587.994 515.888C583.269 515.081 577.928 514.678 571.972 514.678H512.543V579.373Z" fill="black"/>
<path d="M674.057 608.933L779.426 393.818H814.07L919.441 608.933H876.512L848.44 548.538L866.243 559.219H726.845L744.646 548.538L716.916 608.933H673.987H674.057ZM796.201 436.209L749.985 537.855L741.428 528.114H851.728L843.443 537.855L796.886 436.209H796.201Z" fill="black"/>
<path d="M944.842 608.933V393.818H976.543L1110.33 554.316H1101.77V393.818H1141.07V608.933H1109.71L975.926 448.101H984.211V608.933H944.911H944.842Z" fill="black"/>
<path d="M389.186 202.836L389.185 202.835L327.497 97.9655C319.622 84.5098 317.519 68.9274 321.591 53.9422C325.663 38.9569 335.437 26.4357 349.151 18.7077L349.152 18.7072L367.434 8.36124L367.437 8.35987C381.15 0.498918 397.036 -1.50057 412.317 2.49782C427.596 6.49577 440.357 16.0883 448.231 29.5423L448.232 29.5433L509.92 134.413C517.795 147.869 519.897 163.451 515.825 178.437C511.753 193.422 501.979 205.942 488.265 213.67L488.265 213.671L469.984 224.017L469.982 224.018C460.884 229.214 450.768 231.812 440.515 231.812H440.015V231.878C435.021 231.836 430.029 231.171 425.1 229.88L424.973 230.364L425.1 229.88C409.821 225.883 397.06 216.29 389.186 202.836ZM377.486 25.2936L377.485 25.294L359.204 35.64L359.204 35.64C350.19 40.7431 343.667 49.0471 340.961 58.919L340.961 58.9199C338.256 68.8582 339.644 79.2086 344.847 88.0584L344.847 88.0585L406.536 192.929L406.536 192.93C417.357 211.239 441.28 217.564 459.933 206.949L478.212 196.604L478.213 196.603C496.868 185.988 503.328 162.502 492.502 144.184L430.813 39.3152C425.611 30.4666 417.147 24.0698 407.095 21.4164L407.093 21.4159C403.718 20.5375 400.343 20.1289 396.971 20.1234V20.1233H396.902V20.1234C390.127 20.1354 383.495 21.9048 377.486 25.2936Z" fill="black" stroke="black"/>
<path d="M526.989 303.728C553.384 303.728 574.78 282.734 574.78 256.836C574.78 230.938 553.384 209.943 526.989 209.943C500.596 209.943 479.2 230.938 479.2 256.836C479.2 282.734 500.596 303.728 526.989 303.728Z" fill="black"/>
<path d="M594.771 183.473C630.846 183.473 660.088 154.778 660.088 119.382C660.088 83.9856 630.846 55.291 594.771 55.291C558.697 55.291 529.454 83.9856 529.454 119.382C529.454 154.778 558.697 183.473 594.771 183.473Z" fill="black"/>
<path d="M594.771 189.653C555.266 189.653 523.155 158.145 523.155 119.382C523.155 80.6181 555.266 49.1099 594.771 49.1099C634.277 49.1099 666.388 80.6181 666.388 119.382C666.388 158.145 634.277 189.653 594.771 189.653ZM594.771 61.4712C562.25 61.4712 535.752 87.4706 535.752 119.382C535.752 151.294 562.25 177.293 594.771 177.293C627.292 177.293 653.79 151.294 653.79 119.382C653.79 87.4706 627.292 61.4712 594.771 61.4712Z" fill="#0A0A0A"/>
<path d="M752.862 150.017C714.795 150.017 683.778 119.583 683.778 82.2305C683.778 44.8775 714.795 14.4443 752.862 14.4443C790.93 14.4443 821.945 44.8775 821.945 82.2305C821.945 119.583 790.93 150.017 752.862 150.017ZM752.862 35.069C726.365 35.069 704.799 56.2312 704.799 82.2305C704.799 108.23 726.365 129.392 752.862 129.392C779.358 129.392 800.926 108.23 800.926 82.2305C800.926 56.2312 779.358 35.069 752.862 35.069Z" fill="black"/>
<path d="M695.518 165.699L621.869 232.712C604.429 248.582 603.402 275.317 619.574 292.43L632.143 305.731C648.315 322.844 675.564 323.852 693.003 307.984L766.653 240.97C784.093 225.102 785.121 198.365 768.948 181.252L756.378 167.952C740.206 150.839 712.958 149.831 695.518 165.699Z" fill="black"/>
</g>
<defs>
<clipPath id="clip0_2048_46">
<rect width="1141" height="722" fill="white"/>
</clipPath>
</defs>
</svg>
