<svg width="32" height="32" viewBox="0 0 32 32" fill="none" xmlns="http://www.w3.org/2000/svg">
<path d="M25.3334 5.33335H22.6667V4.00002C22.6667 3.6464 22.5263 3.30726 22.2762 3.05721C22.0262 2.80716 21.687 2.66669 21.3334 2.66669C20.9798 2.66669 20.6407 2.80716 20.3906 3.05721C20.1406 3.30726 20.0001 3.6464 20.0001 4.00002V5.33335H12.0001V4.00002C12.0001 3.6464 11.8596 3.30726 11.6096 3.05721C11.3595 2.80716 11.0204 2.66669 10.6667 2.66669C10.3131 2.66669 9.97399 2.80716 9.72394 3.05721C9.47389 3.30726 9.33341 3.6464 9.33341 4.00002V5.33335H6.66675C5.60588 5.33335 4.58847 5.75478 3.83832 6.50493C3.08818 7.25507 2.66675 8.27249 2.66675 9.33335V25.3334C2.66675 26.3942 3.08818 27.4116 3.83832 28.1618C4.58847 28.9119 5.60588 29.3334 6.66675 29.3334H25.3334C26.3943 29.3334 27.4117 28.9119 28.1618 28.1618C28.912 27.4116 29.3334 26.3942 29.3334 25.3334V9.33335C29.3334 8.27249 28.912 7.25507 28.1618 6.50493C27.4117 5.75478 26.3943 5.33335 25.3334 5.33335ZM26.6667 25.3334C26.6667 25.687 26.5263 26.0261 26.2762 26.2762C26.0262 26.5262 25.687 26.6667 25.3334 26.6667H6.66675C6.31313 26.6667 5.97399 26.5262 5.72394 26.2762C5.47389 26.0261 5.33341 25.687 5.33341 25.3334V16H26.6667V25.3334ZM26.6667 13.3334H5.33341V9.33335C5.33341 8.97973 5.47389 8.64059 5.72394 8.39054C5.97399 8.1405 6.31313 8.00002 6.66675 8.00002H9.33341V9.33335C9.33341 9.68698 9.47389 10.0261 9.72394 10.2762C9.97399 10.5262 10.3131 10.6667 10.6667 10.6667C11.0204 10.6667 11.3595 10.5262 11.6096 10.2762C11.8596 10.0261 12.0001 9.68698 12.0001 9.33335V8.00002H20.0001V9.33335C20.0001 9.68698 20.1406 10.0261 20.3906 10.2762C20.6407 10.5262 20.9798 10.6667 21.3334 10.6667C21.687 10.6667 22.0262 10.5262 22.2762 10.2762C22.5263 10.0261 22.6667 9.68698 22.6667 9.33335V8.00002H25.3334C25.687 8.00002 26.0262 8.1405 26.2762 8.39054C26.5263 8.64059 26.6667 8.97973 26.6667 9.33335V13.3334Z" fill="#FAAB00"/>
</svg>
