<svg width="28" height="28" viewBox="0 0 28 28" fill="none" xmlns="http://www.w3.org/2000/svg">
<path d="M21.0217 5.27984C20.7052 5.27984 20.3959 5.37368 20.1328 5.54949C19.8697 5.7253 19.6646 5.97518 19.5435 6.26754C19.4224 6.55991 19.3907 6.88161 19.4524 7.19198C19.5142 7.50235 19.6666 7.78744 19.8903 8.01121C20.1141 8.23497 20.3992 8.38736 20.7095 8.44909C21.0199 8.51083 21.3416 8.47914 21.634 8.35804C21.9263 8.23694 22.1762 8.03187 22.352 7.76875C22.5279 7.50563 22.6217 7.19629 22.6217 6.87984C22.6217 6.45549 22.4531 6.04852 22.1531 5.74847C21.853 5.44841 21.446 5.27984 21.0217 5.27984ZM27.155 8.5065C27.1289 7.40026 26.9217 6.30577 26.5417 5.2665C26.2042 4.37657 25.6763 3.57112 24.995 2.9065C24.3348 2.22307 23.5278 1.69874 22.635 1.37317C21.5986 0.981385 20.5028 0.769451 19.395 0.746504C17.9817 0.666504 17.5284 0.666504 13.9017 0.666504C10.275 0.666504 9.82169 0.666504 8.40836 0.746504C7.30056 0.769451 6.20482 0.981385 5.16836 1.37317C4.27767 1.70284 3.47151 2.22661 2.80836 2.9065C2.12493 3.56674 1.60059 4.37376 1.27503 5.2665C0.88324 6.30296 0.671306 7.39871 0.648359 8.5065C0.568359 9.91984 0.568359 10.3732 0.568359 13.9998C0.568359 17.6265 0.568359 18.0798 0.648359 19.4932C0.671306 20.601 0.88324 21.6967 1.27503 22.7332C1.60059 23.6259 2.12493 24.4329 2.80836 25.0932C3.47151 25.7731 4.27767 26.2968 5.16836 26.6265C6.20482 27.0183 7.30056 27.2302 8.40836 27.2532C9.82169 27.3332 10.275 27.3332 13.9017 27.3332C17.5284 27.3332 17.9817 27.3332 19.395 27.2532C20.5028 27.2302 21.5986 27.0183 22.635 26.6265C23.5278 26.3009 24.3348 25.7766 24.995 25.0932C25.678 24.4299 26.2061 23.6241 26.5417 22.7332C26.9217 21.6939 27.1289 20.5994 27.155 19.4932C27.155 18.0798 27.235 17.6265 27.235 13.9998C27.235 10.3732 27.235 9.91984 27.155 8.5065ZM24.755 19.3332C24.7456 20.1796 24.5923 21.0182 24.3017 21.8132C24.0888 22.3934 23.7469 22.9177 23.3017 23.3465C22.8689 23.7868 22.3458 24.128 21.7684 24.3465C20.9734 24.6371 20.1347 24.7904 19.2884 24.7998C17.955 24.8665 17.4617 24.8798 13.955 24.8798C10.4484 24.8798 9.95503 24.8798 8.62169 24.7998C7.74283 24.8171 6.86763 24.6818 6.03503 24.3998C5.48328 24.1696 4.98423 23.8293 4.56836 23.3998C4.12581 22.9715 3.78815 22.4468 3.58169 21.8665C3.25509 21.0604 3.07449 20.2026 3.04836 19.3332C3.04836 17.9998 2.96836 17.5065 2.96836 13.9998C2.96836 10.4932 2.96836 9.99984 3.04836 8.6665C3.05322 7.80114 3.21121 6.94347 3.51503 6.13317C3.74976 5.57038 4.11005 5.06871 4.56836 4.6665C4.97226 4.20676 5.4732 3.84243 6.03503 3.59984C6.84756 3.30581 7.70428 3.1525 8.56836 3.1465C9.90169 3.1465 10.395 3.0665 13.9017 3.0665C17.4084 3.0665 17.9017 3.0665 19.235 3.1465C20.0814 3.15595 20.92 3.30925 21.715 3.59984C22.3209 3.82471 22.8647 4.1903 23.3017 4.6665C23.7373 5.0772 24.0785 5.57763 24.3017 6.13317C24.5983 6.94501 24.7517 7.80219 24.755 8.6665C24.8217 9.99984 24.835 10.4932 24.835 13.9998C24.835 17.5065 24.8217 17.9998 24.755 19.3332ZM13.9017 7.15984C12.5494 7.16247 11.2283 7.56587 10.1052 8.31906C8.98215 9.07225 8.10753 10.1414 7.59187 11.3915C7.07621 12.6416 6.94266 14.0165 7.20808 15.3424C7.47351 16.6684 8.12601 17.8859 9.08313 18.8411C10.0402 19.7964 11.259 20.4465 12.5855 20.7094C13.912 20.9722 15.2866 20.836 16.5357 20.3179C17.7847 19.7998 18.8522 18.9231 19.6032 17.7985C20.3542 16.674 20.755 15.3521 20.755 13.9998C20.7568 13.1 20.5806 12.2086 20.2367 11.3771C19.8927 10.5456 19.3878 9.79025 18.7509 9.15457C18.1139 8.51889 17.3576 8.01541 16.5254 7.67308C15.6932 7.33074 14.8015 7.15632 13.9017 7.15984ZM13.9017 18.4398C13.0235 18.4398 12.1651 18.1794 11.435 17.6916C10.7048 17.2037 10.1357 16.5103 9.79967 15.699C9.46361 14.8876 9.37569 13.9949 9.54701 13.1336C9.71832 12.2724 10.1412 11.4812 10.7621 10.8603C11.3831 10.2393 12.1742 9.81647 13.0355 9.64515C13.8968 9.47383 14.7895 9.56176 15.6008 9.89781C16.4121 10.2339 17.1055 10.8029 17.5934 11.5331C18.0813 12.2633 18.3417 13.1217 18.3417 13.9998C18.3417 14.5829 18.2268 15.1603 18.0037 15.699C17.7806 16.2376 17.4535 16.7271 17.0412 17.1394C16.629 17.5517 16.1395 17.8787 15.6008 18.1019C15.0621 18.325 14.4848 18.4398 13.9017 18.4398Z" fill="white"/>
</svg>
