<svg width="32" height="32" viewBox="0 0 32 32" fill="none" xmlns="http://www.w3.org/2000/svg">
<path d="M9.25326 6.66678C9.2529 7.37402 8.97161 8.05216 8.47126 8.55201C7.97092 9.05185 7.2925 9.33247 6.58526 9.33211C5.87801 9.33176 5.19987 9.05047 4.70003 8.55012C4.20018 8.04977 3.91957 7.37136 3.91992 6.66411C3.92028 5.95687 4.20157 5.27873 4.70191 4.77889C5.20226 4.27904 5.88068 3.99843 6.58792 3.99878C7.29517 3.99913 7.9733 4.28042 8.47315 4.78077C8.973 5.28112 9.25361 5.95954 9.25326 6.66678ZM9.33326 11.3068H3.99992V28.0001H9.33326V11.3068ZM17.7599 11.3068H12.4533V28.0001H17.7066V19.2401C17.7066 14.3601 24.0666 13.9068 24.0666 19.2401V28.0001H29.3333V17.4268C29.3333 9.20011 19.9199 9.50678 17.7066 13.5468L17.7599 11.3068Z" fill="white"/>
</svg>
