<svg width="32" height="32" viewBox="0 0 32 32" fill="none" xmlns="http://www.w3.org/2000/svg">
<path d="M16.0002 2.66669C10.1335 2.66669 5.3335 7.46669 5.3335 13.3334C5.3335 20.5334 14.6668 28.6667 15.0668 29.0667C15.3335 29.2 15.7335 29.3334 16.0002 29.3334C16.2668 29.3334 16.6668 29.2 16.9335 29.0667C17.3335 28.6667 26.6668 20.5334 26.6668 13.3334C26.6668 7.46669 21.8668 2.66669 16.0002 2.66669ZM16.0002 26.2667C13.2002 23.6 8.00016 17.8667 8.00016 13.3334C8.00016 8.93335 11.6002 5.33335 16.0002 5.33335C20.4002 5.33335 24.0002 8.93335 24.0002 13.3334C24.0002 17.7334 18.8002 23.6 16.0002 26.2667ZM16.0002 8.00002C13.0668 8.00002 10.6668 10.4 10.6668 13.3334C10.6668 16.2667 13.0668 18.6667 16.0002 18.6667C18.9335 18.6667 21.3335 16.2667 21.3335 13.3334C21.3335 10.4 18.9335 8.00002 16.0002 8.00002ZM16.0002 16C14.5335 16 13.3335 14.8 13.3335 13.3334C13.3335 11.8667 14.5335 10.6667 16.0002 10.6667C17.4668 10.6667 18.6668 11.8667 18.6668 13.3334C18.6668 14.8 17.4668 16 16.0002 16Z" fill="#FAAB00"/>
</svg>
