<svg width="21" height="20" viewBox="0 0 21 20" fill="none" xmlns="http://www.w3.org/2000/svg">
<g clip-path="url(#clip0_2030_291)">
<path d="M3.42999 17.07C2.47489 16.1475 1.71306 15.044 1.18897 13.824C0.664884 12.604 0.389021 11.2918 0.377483 9.96397C0.365945 8.63618 0.618962 7.31938 1.12177 6.09042C1.62458 4.86145 2.36711 3.74493 3.30604 2.80601C4.24496 1.86708 5.36148 1.12455 6.59045 0.62174C7.81941 0.118932 9.13621 -0.134085 10.464 -0.122547C11.7918 -0.111009 13.104 0.164853 14.324 0.688943C15.5441 1.21303 16.6475 1.97486 17.57 2.92996C19.3916 4.81598 20.3995 7.342 20.3767 9.96397C20.3539 12.5859 19.3023 15.0941 17.4482 16.9481C15.5941 18.8022 13.086 19.8539 10.464 19.8767C7.84203 19.8995 5.31601 18.8915 3.42999 17.07ZM16.16 15.66C17.6611 14.1588 18.5044 12.1229 18.5044 9.99996C18.5044 7.87705 17.6611 5.84108 16.16 4.33996C14.6589 2.83883 12.6229 1.99551 10.5 1.99551C8.37708 1.99551 6.34111 2.83883 4.83999 4.33996C3.33886 5.84108 2.49554 7.87705 2.49554 9.99996C2.49554 12.1229 3.33886 14.1588 4.83999 15.66C6.34111 17.1611 8.37708 18.0044 10.5 18.0044C12.6229 18.0044 14.6589 17.1611 16.16 15.66ZM7.49999 5.99996L15.5 9.99996L7.49999 14V5.99996Z" fill="#110011"/>
</g>
<defs>
<clipPath id="clip0_2030_291">
<rect width="20" height="20" fill="white" transform="translate(0.5)"/>
</clipPath>
</defs>
</svg>
