<svg width="32" height="32" viewBox="0 0 32 32" fill="none" xmlns="http://www.w3.org/2000/svg">
<g clip-path="url(#clip0_333_48)">
<path d="M16 0C7.1625 0 0 7.1625 0 16C0 24.8375 7.1625 32 16 32C24.8375 32 32 24.8375 32 16C32 7.1625 24.8375 0 16 0ZM16 29.3312C8.6375 29.3312 2.66875 23.3625 2.66875 16C2.66875 8.6375 8.6375 2.66875 16 2.66875C23.3625 2.66875 29.3312 8.6375 29.3312 16C29.3312 23.3625 23.3625 29.3312 16 29.3312ZM14.6687 14.6687H8V17.3375H17.3312V5.3375H14.6625V14.6687H14.6687Z" fill="#FAAB00"/>
</g>
<defs>
<clipPath id="clip0_333_48">
<rect width="32" height="32" fill="white"/>
</clipPath>
</defs>
</svg>
