<svg width="32" height="32" viewBox="0 0 32 32" fill="none" xmlns="http://www.w3.org/2000/svg">
<path d="M29.6173 7.54124C28.5992 7.99119 27.5198 8.28689 26.4146 8.41857C27.5783 7.72095 28.4491 6.62459 28.8653 5.33324C27.7719 5.9839 26.5733 6.4399 25.3253 6.68657C24.4861 5.78867 23.3737 5.19319 22.1612 4.99268C20.9487 4.79218 19.7038 4.99789 18.6203 5.57784C17.5367 6.15779 16.6751 7.07948 16.1694 8.19963C15.6637 9.31977 15.5423 10.5756 15.8239 11.7719C13.6064 11.6613 11.437 11.0853 9.45668 10.0815C7.47633 9.07766 5.72935 7.66838 4.32926 5.94524C3.83376 6.79655 3.57332 7.76422 3.57459 8.74924C3.57459 10.6826 4.55992 12.3906 6.05459 13.3906C5.16952 13.3611 4.30406 13.1221 3.52926 12.6932V12.7612C3.52922 14.0491 3.97463 15.2973 4.78996 16.2941C5.6053 17.291 6.74034 17.9752 8.00259 18.2306C7.18081 18.4538 6.31896 18.4866 5.48259 18.3266C5.83849 19.4351 6.53221 20.4045 7.46659 21.0991C8.40096 21.7937 9.5292 22.1786 10.6933 22.1999C9.53618 23.1081 8.21153 23.7795 6.79496 24.1758C5.37838 24.572 3.89763 24.6853 2.43726 24.5092C4.98619 26.1485 7.95338 27.0187 10.9839 27.0159C21.2426 27.0159 26.8506 18.5186 26.8506 11.1492C26.8506 10.9083 26.8453 10.6679 26.8346 10.4279C27.9257 9.63898 28.8676 8.66193 29.6159 7.54257" fill="white"/>
</svg>
