<svg width="28" height="22" viewBox="0 0 28 22" fill="none" xmlns="http://www.w3.org/2000/svg">
<path d="M13.8524 0.333496C14.9924 0.333496 16.1617 0.36283 17.295 0.41083L18.6337 0.474829L19.915 0.55083L21.115 0.632163L22.211 0.717496C23.4006 0.808018 24.5201 1.31541 25.3723 2.1503C26.2245 2.98519 26.7548 4.09402 26.8697 5.2815L26.923 5.84816L27.023 7.0615C27.1164 8.31883 27.1857 9.6895 27.1857 11.0002C27.1857 12.3108 27.1164 13.6815 27.023 14.9388L26.923 16.1522L26.8697 16.7188C26.7547 17.9065 26.2243 19.0155 25.3718 19.8504C24.5193 20.6853 23.3995 21.1926 22.2097 21.2828L21.1164 21.3668L19.9164 21.4495L18.6337 21.5255L17.295 21.5895C16.1481 21.6392 15.0003 21.665 13.8524 21.6668C12.7044 21.665 11.5566 21.6392 10.4097 21.5895L9.07104 21.5255L7.78971 21.4495L6.58971 21.3668L5.49371 21.2828C4.30413 21.1923 3.18464 20.6849 2.33243 19.85C1.48023 19.0151 0.949964 17.9063 0.835043 16.7188L0.78171 16.1522L0.68171 14.9388C0.580153 13.6283 0.525896 12.3146 0.519043 11.0002C0.519043 9.6895 0.588376 8.31883 0.68171 7.0615L0.78171 5.84816L0.835043 5.2815C0.949919 4.09423 1.47999 2.98557 2.33193 2.1507C3.18386 1.31584 4.30303 0.808318 5.49238 0.717496L6.58704 0.632163L7.78704 0.55083L9.06971 0.474829L10.4084 0.41083C11.5557 0.361132 12.704 0.335349 13.8524 0.333496ZM13.8524 3.00016C12.7524 3.00016 11.6204 3.0295 10.519 3.07483L9.21504 3.1375L7.96304 3.21083L6.78704 3.29083L5.70971 3.37483C5.1433 3.41448 4.6093 3.65367 4.20259 4.04987C3.79588 4.44608 3.54282 4.97365 3.48838 5.53883C3.33238 7.15083 3.18571 9.1575 3.18571 11.0002C3.18571 12.8428 3.33238 14.8495 3.48838 16.4615C3.60171 17.6242 4.52438 18.5282 5.70971 18.6255L6.78704 18.7082L7.96304 18.7882L9.21504 18.8628L10.519 18.9255C11.6204 18.9708 12.7524 19.0002 13.8524 19.0002C14.9524 19.0002 16.0844 18.9708 17.1857 18.9255L18.4897 18.8628L19.7417 18.7895L20.9177 18.7095L21.995 18.6255C22.5614 18.5858 23.0955 18.3467 23.5022 17.9505C23.9089 17.5542 24.1619 17.0267 24.2164 16.4615C24.3724 14.8495 24.519 12.8428 24.519 11.0002C24.519 9.1575 24.3724 7.15083 24.2164 5.53883C24.1619 4.97365 23.9089 4.44608 23.5022 4.04987C23.0955 3.65367 22.5614 3.41448 21.995 3.37483L20.9177 3.29216L19.7417 3.21216L18.4897 3.1375L17.1857 3.07483C16.0752 3.02717 14.9639 3.00227 13.8524 3.00016ZM11.1857 7.76683C11.1856 7.63651 11.2174 7.50815 11.2782 7.3929C11.339 7.27765 11.4271 7.17901 11.5347 7.10554C11.6423 7.03208 11.7663 6.98602 11.8958 6.97137C12.0253 6.95672 12.1564 6.97393 12.2777 7.0215L12.3857 7.07483L17.9857 10.3068C18.0972 10.3712 18.1916 10.4615 18.2607 10.5701C18.3299 10.6787 18.3718 10.8024 18.3829 10.9306C18.394 11.0589 18.374 11.1879 18.3246 11.3068C18.2752 11.4257 18.1978 11.5309 18.099 11.6135L17.9857 11.6935L12.3857 14.9268C12.2729 14.9922 12.1457 15.0289 12.0154 15.0339C11.8851 15.0389 11.7556 15.012 11.6381 14.9555C11.5205 14.8989 11.4186 14.8145 11.3412 14.7096C11.2637 14.6047 11.2131 14.4825 11.1937 14.3535L11.1857 14.2335V7.76683Z" fill="white"/>
</svg>
